<svg viewBox="0 0 180 145" fill="none" xmlns="http://www.w3.org/2000/svg"><path d="M126.332 22.645C95.524 13.683 53.892 3.503 21.712.968c-.66 0-7.717-1.092-8.039-.504l-6.666 12L.342 24.48c-.322.574 4.299 6.021 4.69 6.553 19.186 25.963 49.826 55.833 73.772 77.286a549.616 549.616 0 0 0 43.411 36.003l5.181-9.34 15.222-27.419c2.801-5.051 5.601-10.106 8.402-15.166l8.402-15.166 15.222-27.433 5.181-9.326a546.573 546.573 0 0 0-53.493-17.827z" fill="url(#paint0_linear)"/><path d="M65.878 45.135c-11.763-3.5-23.484-7.002-28.721-8.738-7.24-2.353-16.804-8.15-22.742-12.043l6.582-11.875c6.456 2.997 16.426 8.024 22.252 12.925C47.464 28.933 56.664 37 65.879 45.135z" fill="url(#paint1_linear)"/><defs><linearGradient id="paint0_linear" x1="6.996" y1="12.517" x2="151.063" y2="92.441" gradientUnits="userSpaceOnUse"><stop stop-color="#FBE381"/><stop offset=".51" stop-color="#FDD060"/><stop offset="1" stop-color="#191743"/></linearGradient><linearGradient id="paint1_linear" x1="17.698" y1="18.455" x2="65.859" y2="45.173" gradientUnits="userSpaceOnUse"><stop stop-color="#FAAA51"/><stop offset=".07" stop-color="#FBBF59"/><stop offset=".19" stop-color="#FDDA64"/><stop offset=".3" stop-color="#FEEA6B"/><stop offset=".38" stop-color="#FEF06D"/><stop offset=".48" stop-color="#FEF49A"/><stop offset=".61" stop-color="#FEF9D2"/><stop offset=".68" stop-color="#FEFBE7"/></linearGradient></defs></svg>