<svg width="676" height="869" viewBox="0 0 676 869" fill="none" xmlns="http://www.w3.org/2000/svg"><path d="M18.33 0a166.63 166.63 0 0 1 8.403 19.17c26.214 70.537 27.223 153.634 70.382 213.457 43.845 60.776 121.425 82.901 166.278 142.836a179.167 179.167 0 0 1 9.382 13.85c23.428 38.174 33.273 84.301 42.669 128.623 9.397 44.321 19.521 86.822 39.21 126.256h321.844V0H18.331z" fill="#191743"/><path d="M368 700c-22.448-31.863-29-95.5-29-95.5l57 22.5 302.5 6-9 236s-90.665-71.732-156-105.5c-61.498-31.784-125.63-6.909-165.5-63.5z" fill="#191743"/><path d="M562.509 394.41c1.867 2.325 3.734 4.659 5.601 7.002a165.782 165.782 0 0 1-3.374 8.892c-1.765-2.24-3.553-4.495-5.364-6.763a1274.275 1274.275 0 0 0-13.695-16.805 3.363 3.363 0 0 0-1.737-3.949 6.217 6.217 0 0 0-2.296-.882c-11.427-13.569-23.568-27.405-36.311-41.367a180.454 180.454 0 0 1 5.181-6.427c18.723 20.487 36.199 40.75 51.995 60.299z" fill="url(#paint0_linear)"/><path d="M341.085 175.297c2.324 1.82 4.658 3.664 7.002 5.531a1402.136 1402.136 0 0 1 108.023 96.821 212.977 212.977 0 0 0-7.464 4.117 1373.244 1373.244 0 0 0-109.634-97.703 632.238 632.238 0 0 0-6.805-5.336 165.667 165.667 0 0 1 8.878-3.43z" fill="url(#paint1_linear)"/><path d="M520.794 462.9c66.428-66.428 66.429-174.13 0-240.559s-174.131-66.429-240.56 0c-66.428 66.429-66.428 174.131 0 240.559 66.429 66.429 174.131 66.429 240.56 0z" fill="url(#paint2_linear)"/><path d="M223.035 342.625a177.48 177.48 0 0 0 261.148 156.519 177.482 177.482 0 1 0-209.167-282.019 176.314 176.314 0 0 0-51.981 125.5zm7.436 0a170.046 170.046 0 1 1 340.09.002 170.046 170.046 0 0 1-340.09-.002z" fill="url(#paint3_linear)"/><path d="M243.088 295.657a20.017 20.017 0 0 1 20.585 4.383c4.201 4.117 6.26 9.803 9.158 14.928a49.31 49.31 0 0 0 50.203 24.408c-1.834 2.479-3.627 4.943-5.405 7.296-10.965 14.48-24.423 29.001-42.277 32.334a41.638 41.638 0 0 1-33.483-8.542 40.393 40.393 0 0 1-10.81-13.723 168.857 168.857 0 0 0 7.968 39.28 171.084 171.084 0 0 1-3.361-95.225 19.272 19.272 0 0 1 7.422-5.139z" fill="url(#paint4_linear)"/><path d="M241.87 370.464a41.634 41.634 0 0 0 33.482 8.542c17.855-3.333 31.312-17.854 42.277-32.334 1.778-2.353 3.571-4.817 5.405-7.296 10.853-14.802 22.924-30.71 42.011-33.188 1.946-.252 4.201-.238 5.461 1.302a4.21 4.21 0 0 1 .703 1.823 4.208 4.208 0 0 1-.199 1.944c-1.008 3.319-4.117 5.601-5.153 8.85a4.54 4.54 0 0 0 1.064 4.86c1.401 1.204 3.585.98 5.434.602a77.516 77.516 0 0 0 20.137-7.688c14.914-7.716 28.007-17.995 41.856-27.321a245.35 245.35 0 0 1 22.756-13.514 257.776 257.776 0 0 1 82.859-26.13l3.487-.476c10.027-1.261 20.207-1.779 30.108 0a29.861 29.861 0 0 1 10.236 3.543 14.632 14.632 0 0 1 6.68 8.276c1.246 4.439-.322 9.298-3.109 12.981-6.091 8.094-15.894 11.833-24.604 16.342l-2.031 1.092a181.502 181.502 0 0 0-68.519 67.399c-2.521 4.384-4.901 8.991-5.517 14.004-.616 5.013.826 10.559 4.817 13.667 4.411 3.459 9.802 3.067 14.802 1.331 3.108-1.064 6.077-2.549 9.13-3.753a55.351 55.351 0 0 1 23.96-3.697 9.346 9.346 0 0 1 4.495 1.162c4.887 3.165-.994 8.15-3.459 10.461-2.8 2.591-5.783 4.915-8.78 7.254a71.067 71.067 0 0 0-12.603 11.609 25.022 25.022 0 0 0-5.966 15.782 15.954 15.954 0 0 0 6.218 12.449c4.201 3.053 9.802 3.193 14.718 2.128a41.15 41.15 0 0 0 5.265-1.526 145.46 145.46 0 0 1-2.801 3.809c-.21.294-.434.56-.644.84-.728.952-1.4 1.905-2.212 2.801-.28.378-.589.742-.883 1.106-.7.868-1.4 1.723-2.114 2.563l-.896 1.064c-.799.938-1.611 1.849-2.423 2.801-.21.238-.42.49-.644.728a148.23 148.23 0 0 1-3.207 3.445l-.252.266a207.19 207.19 0 0 1-2.969 3.025l-.938.91c-.798.784-1.61 1.554-2.423 2.325l-1.078.994-2.479 2.254-.994.869c-1.064.938-2.142 1.848-3.221 2.8l-.28.238a180.805 180.805 0 0 1-3.669 2.941l-.84.644c-.938.728-1.89 1.401-2.801 2.143l-1.19.868c-.868.644-1.75 1.26-2.632 1.876l-1.233.855c-.952.658-1.932 1.302-2.899 1.932l-.966.644a165.408 165.408 0 0 1-3.977 2.493l-.28.168c-1.218.728-2.465 1.4-3.711 2.171l-1.218.686-2.969 1.512-1.4.742c-.953.49-1.905.981-2.801 1.401l-1.4.658c-1.163.574-2.339 1.12-3.515 1.666l-.7.322a94.44 94.44 0 0 1-4.3 1.877l-1.064.434c-1.092.448-2.184.896-3.277 1.316l-1.484.574-2.983 1.079c-.504.196-1.022.378-1.54.546l-3.179 1.064c-.434.14-.868.294-1.316.42-1.499.476-3.011.938-4.523 1.401l-.266.084c-1.401.392-2.801.77-4.3 1.134l-1.47.364a115.8 115.8 0 0 1-3.179.742l-1.666.364-3.137.644-1.61.308c-1.219.225-2.437.435-3.669.631l-1.065.168c-1.582.252-3.178.462-4.761.672l-1.204.14-3.627.392-1.694.14c-1.065.098-2.143.182-3.221.252l-1.765.112c-1.12.07-2.254.112-3.375.154l-1.554.07c-1.638 0-3.291.07-4.929.07h-5.686l-2.8-.098-1.709-.112-2.52-.154-1.807-.154-2.395-.21-1.848-.196-2.311-.266-1.89-.252-2.255-.322-1.904-.294-2.199-.364-1.904-.351-2.171-.406-1.904-.406a64.854 64.854 0 0 1-2.129-.462l-1.904-.434-2.101-.518-1.89-.476-2.073-.56-1.89-.532-2.031-.617-1.89-.574-2.003-.644-1.862-.63-1.975-.7-1.862-.658-1.933-.743c-.616-.238-1.246-.462-1.862-.714l-1.877-.77-1.862-.77c-.616-.252-1.218-.532-1.835-.798l-1.862-.827-1.722-.798-1.933-.91-.966-.476a192.894 192.894 0 0 1-4.817-2.465l-1.233-.658c-.714-.378-1.4-.77-2.1-1.162l-1.401-.784c-.686-.379-1.4-.785-2.044-1.191l-1.401-.826-1.988-1.232-1.4-.869-1.961-1.274-1.4-.896a95.25 95.25 0 0 1-1.947-1.33l-1.33-.925-1.919-1.4-1.288-.938-1.918-1.401-1.233-.938-1.904-1.512-1.176-.952-1.849-1.681-1.12-.938-1.905-1.653-1.05-.924-1.904-1.722c-.323-.308-.645-.616-.981-.91l-1.904-1.821c-.308-.28-.602-.574-.896-.868l-1.947-1.919-.756-.784-2.003-2.072-.602-.658a254.256 254.256 0 0 1-2.1-2.269l-.35-.406a170.278 170.278 0 0 1-18.205-24.282 1.642 1.642 0 0 1-.154-.266c-.616-.981-1.204-1.975-1.793-2.969l-.252-.42c-.56-.967-1.106-1.947-1.652-2.927l-.294-.518c-.532-.966-1.05-1.933-1.568-2.899-.099-.196-.211-.392-.309-.602-.504-.952-.994-1.933-1.484-2.913l-.308-.602c-.476-.98-.952-1.96-1.4-2.955l-.294-.616a118.49 118.49 0 0 0-1.401-2.997c-.098-.196-.182-.406-.266-.602-.448-1.017-.882-2.04-1.302-3.067a8.965 8.965 0 0 1-.224-.546 155.268 155.268 0 0 1-1.261-3.178 6.516 6.516 0 0 1-.182-.463 132.85 132.85 0 0 1-1.218-3.304l-.126-.337a144.73 144.73 0 0 1-1.19-3.472v-.126a168.857 168.857 0 0 1-7.968-39.28 40.382 40.382 0 0 0 10.839 13.723z" fill="url(#paint5_linear)"/><path d="M301.609 389.187c2.8-.098 6.119.252 7.646 2.619 1.526 2.366.322 5.923-1.233 8.514-5.517 9.2-13.765 16.622-18.68 26.172a20.467 20.467 0 0 0-2.703 10.979c.56 6.162 6.273 9.985 11.791 11.581 16.202 4.663 33.524-3.963 45.679-15.642 3.431-3.291 6.428-6.932 9.705-10.377 2.885-3.052 5.167-6.889 7.744-10.25a126.282 126.282 0 0 1 18.513-19.955c10.166-8.556 22.629-14.886 35.891-15.684a9.806 9.806 0 0 1 4.593.518c5.447 2.367 2.282 10.755 1.61 14.802-1.848 11.063-5.601 37.165 12.379 37.235 7.884 0 15.404-8.024 22.546-4.677 7.142 3.347 5.013 12.421 7.002 18.723a19.887 19.887 0 0 0 8.724 11.455 19.387 19.387 0 0 0 13.626 1.4 48.095 48.095 0 0 0 12.799-5.601c8.262-4.706 16.216-10.013 24.856-14.004a60.326 60.326 0 0 1 21.3-5.531 170.109 170.109 0 0 1-157.792 80.527 170.099 170.099 0 0 1-143.817-103.437 122.354 122.354 0 0 1 10.951-5.602c14.367-6.735 30.836-13.163 46.87-13.765z" fill="url(#paint6_linear)"/><path d="M508.735 230.218a3.976 3.976 0 0 0 1.074-2.923 3.997 3.997 0 0 0-1.354-2.804c-17.77-15.6-39.574-26.173-48.256-30.052a3.958 3.958 0 0 0-3.111-.061 3.962 3.962 0 0 0-2.196 2.204 3.992 3.992 0 0 0 2.03 5.069c8.248 3.711 29.408 14.004 46.31 28.778a3.965 3.965 0 0 0 5.503-.211zm-70.465-38.551a4.777 4.777 0 0 0 9.458.931 4.773 4.773 0 0 0-4.683-5.707 4.779 4.779 0 0 0-4.775 4.776z" fill="#fff"/><path d="M451.615 338.578a9.152 9.152 0 0 0 9.764 2.885 9.166 9.166 0 0 0 6.396-7.921 9.157 9.157 0 0 0-14.998-7.847 9.128 9.128 0 0 0-1.162 12.883z" fill="#503AA3"/><path d="M612.642 253.254c1.722 5.518 8.71 8.234 15.614 6.078 6.903-2.157 11.076-8.402 9.354-13.892-1.722-5.489-8.71-8.248-15.614-6.091-6.904 2.156-11.077 8.374-9.354 13.905z" fill="url(#paint7_linear)"/><path d="M555.703 381.597c1.023 3.263 5.14 4.873 9.215 3.599s6.539-4.943 5.517-8.206c-1.022-3.263-5.139-4.859-9.214-3.599-4.075 1.26-6.554 4.957-5.518 8.206z" fill="url(#paint8_linear)"/><path d="M377.004 304.241c.994 1.933 3.753 2.507 6.175 1.261 2.423-1.247 3.585-3.809 2.591-5.742-.994-1.932-3.753-2.507-6.176-1.274-2.422 1.232-3.584 3.809-2.59 5.755z" fill="url(#paint9_linear)"/><path d="M653.028 237.962c.644 2.073 3.277 3.109 5.868 2.297 2.59-.812 4.201-3.151 3.528-5.237-.672-2.087-3.276-3.095-5.881-2.283-2.605.812-4.173 3.151-3.515 5.223z" fill="url(#paint10_linear)"/><path d="M586.875 372.257a3.577 3.577 0 0 0 2.663 3.154 3.57 3.57 0 1 0-.17-6.865 3.19 3.19 0 0 0-2.493 3.711z" fill="url(#paint11_linear)"/><path d="M449.64 479.314a9.164 9.164 0 0 0 9.764 2.884 9.153 9.153 0 0 0 6.397-7.92 9.166 9.166 0 0 0-4.876-8.938 9.162 9.162 0 0 0-12.994 10.84 9.153 9.153 0 0 0 1.709 3.134z" fill="url(#paint12_linear)"/><path d="M383.333 452.049a9.15 9.15 0 0 0 14.136-.119 9.145 9.145 0 1 0-14.136.119z" fill="url(#paint13_linear)"/><path d="M252.96 351.111a9.15 9.15 0 0 0 9.75 2.858 9.145 9.145 0 1 0-10.844-12.963 9.137 9.137 0 0 0 1.094 10.105z" fill="url(#paint14_linear)"/><path d="M269.106 422.179a9.15 9.15 0 0 0 14.136-.133 9.13 9.13 0 0 0 1.986-4.923 9.132 9.132 0 0 0-1.084-5.196 9.139 9.139 0 0 0-13.889-2.631 9.146 9.146 0 0 0-1.149 12.883z" fill="url(#paint15_linear)"/><path d="M540.244 266.068a4.686 4.686 0 0 0 5 1.484 4.691 4.691 0 1 0-5-1.484z" fill="url(#paint16_linear)"/><path d="M357.623 348.254a4.67 4.67 0 0 0 4.985 1.448 4.672 4.672 0 0 0 3.251-4.046 4.674 4.674 0 1 0-9.114.992c.184.588.482 1.134.878 1.606z" fill="url(#paint17_linear)"/><path d="M477.059 440.832a4.68 4.68 0 0 0 4.987 1.458 4.681 4.681 0 0 0 3.257-4.047 4.678 4.678 0 0 0-9.318-.831 4.676 4.676 0 0 0 1.074 3.42z" fill="url(#paint18_linear)"/><path d="M522.179 394.9a2.278 2.278 0 0 0 2.431.715 2.28 2.28 0 0 0 .384-4.198 2.286 2.286 0 0 0-3.247 2.7c.09.287.237.554.432.783z" fill="url(#paint19_linear)"/><path d="M401.552 400.628a7.181 7.181 0 0 0 7.657 2.248 7.182 7.182 0 0 0 4.162-10.295 7.19 7.19 0 0 0-7.069-3.704 7.177 7.177 0 0 0-6.393 6.5 7.175 7.175 0 0 0 1.643 5.251z" fill="url(#paint20_linear)"/><path d="M462.706 410.696a7.18 7.18 0 0 0 11.103-.098 7.18 7.18 0 0 0 .715-7.949 7.184 7.184 0 1 0-11.818 8.047z" fill="url(#paint21_linear)"/><path d="M312.602 435.357a7.193 7.193 0 0 0 7.673 2.255 7.193 7.193 0 0 0 3.454-2.352 7.19 7.19 0 0 0 .715-7.965 7.196 7.196 0 0 0-10.932-2.077 7.175 7.175 0 0 0-2.561 4.88 7.18 7.18 0 0 0 1.651 5.259z" fill="url(#paint22_linear)"/><path d="M389.817 400.152a1.95 1.95 0 0 0 2.989-.08 1.95 1.95 0 0 0-.615-2.926 1.941 1.941 0 0 0-2.136.205 1.973 1.973 0 0 0-.238 2.801z" fill="url(#paint23_linear)"/><path d="M535.44 294.313a2.899 2.899 0 1 0 .364-4.089 2.912 2.912 0 0 0-.364 4.089z" fill="url(#paint24_linear)"/><path d="M456.138 317.727a1.963 1.963 0 0 0 3.017-.053 1.956 1.956 0 0 0 .194-2.158 1.955 1.955 0 0 0-1.912-1.019 1.96 1.96 0 0 0-1.047.429 1.97 1.97 0 0 0-.628 2.12c.079.25.207.481.376.681z" fill="url(#paint25_linear)"/><path d="M339.236 474.146a4.674 4.674 0 0 0 4.986 1.458 4.677 4.677 0 1 0-4.398-8.053 4.692 4.692 0 0 0-.588 6.595z" fill="url(#paint26_linear)"/><path d="M414.631 498.527a4.694 4.694 0 0 0 7.257-.044 4.691 4.691 0 1 0-7.257.044z" fill="url(#paint27_linear)"/><path d="M248.647 305.964a4.68 4.68 0 0 0 8.244-2.589 4.678 4.678 0 0 0-9.318-.831 4.676 4.676 0 0 0 1.074 3.42z" fill="url(#paint28_linear)"/><path d="M222.783 207.463c8.402 12.603 17.84 25.724 28.245 39.35a823.85 823.85 0 0 0 4.859 6.301c20.389 26.229 44.097 53.998 70.158 82.145a1529.312 1529.312 0 0 0 42.011 43.593c41.17 41.157 82.845 78.42 121.382 108.724l.953-.588-.939.602a856.481 856.481 0 0 0 6.274 4.887c15.166 11.721 29.828 22.336 43.705 31.606 28.665 19.143 63.758 38.972 86.108 38.972 6.512 0 11.931-1.68 15.81-5.601 17.168-17.169-8.682-64.907-33.413-101.918-11.398-17.071-24.8-35.289-39.854-54.222a164.946 164.946 0 0 1-3.375 8.892c13.682 17.393 25.921 34.127 36.41 49.867 16.216 24.296 27.405 44.811 33.23 61.041 5.42 15.054 5.84 25.907 1.19 30.556-4.649 4.649-15.487 4.201-30.541-1.19-16.202-5.742-36.746-16.944-61.042-33.189-13.079-8.738-26.845-18.68-41.1-29.631a773.915 773.915 0 0 1-6.176-4.789c-38.888-30.388-81.122-68.072-122.853-109.802a1504.04 1504.04 0 0 1-42.669-44.363c-26.284-28.414-50.119-56.435-70.494-82.818-1.61-2.086-3.192-4.201-4.761-6.217-9.648-12.701-18.457-24.996-26.299-36.745-16.23-24.283-27.405-44.812-33.244-61.042-5.405-15.054-5.826-25.907-1.19-30.556 2.142-2.142 5.601-3.207 10.152-3.207 5.364 0 12.281 1.471 20.403 4.398 16.217 5.839 36.76 17.014 61.042 33.244 14.41 9.606 29.631 20.683 45.427 32.964a171.225 171.225 0 0 1 8.893-3.43c-17.337-13.626-34.043-25.837-49.769-36.34-37.025-24.716-84.749-50.58-101.918-33.412-17.168 17.168 8.682 64.906 33.385 101.918z" fill="url(#paint29_linear)"/><path d="M536.462 444.753l-.336.434.336-.434z" fill="url(#paint30_linear)"/><path d="M410.43 155.341a2.91 2.91 0 0 1 3.629-3.982 2.912 2.912 0 0 1 .222 5.383 2.925 2.925 0 0 1-3.851-1.401zm183.866 558.331a3.303 3.303 0 0 1 4.166-4.463 3.307 3.307 0 0 1 1.655 4.832 3.3 3.3 0 0 1-2.695 1.567 3.303 3.303 0 0 1-3.126-1.936zM453.253 580.615a7.943 7.943 0 0 1 5.423-11.01 7.938 7.938 0 0 1 9.744 7.464 7.94 7.94 0 0 1-4.65 7.495 7.914 7.914 0 0 1-6.079.211 7.93 7.93 0 0 1-4.438-4.16zM170.354 246.548a3.912 3.912 0 0 1 .701-4.303 3.925 3.925 0 0 1 4.245-.995 3.924 3.924 0 0 1 1.949 5.744 3.926 3.926 0 0 1-4.707 1.598 3.92 3.92 0 0 1-2.188-2.044zm430.721 159.065a7.943 7.943 0 0 1 1.828-8.631 7.94 7.94 0 1 1 8.493 13.056 7.957 7.957 0 0 1-10.321-4.425zm62.064-108.458a1.207 1.207 0 0 1 .276-1.312 1.21 1.21 0 0 1 1.319-.243 1.208 1.208 0 0 1 .726 1.128 1.206 1.206 0 0 1-1.682 1.083 1.201 1.201 0 0 1-.639-.656zm-203.934 153.76a1.4 1.4 0 1 1 2.616-1.001 1.4 1.4 0 0 1-2.616 1.001zm167.342-289.748a3.974 3.974 0 0 1-.677-4.372 3.975 3.975 0 0 1 5.963-1.522 3.977 3.977 0 0 1 .316 6.146 3.956 3.956 0 0 1-2.853 1.035 3.977 3.977 0 0 1-2.749-1.287z" fill="#fff"/><path style="mix-blend-mode:multiply" d="M350.042 571.64c33.378-52.82-4.298-136.547-84.152-187.009-79.855-50.463-171.648-48.551-205.027 4.269-33.378 52.82 4.298 136.546 84.152 187.009 79.855 50.462 171.648 48.551 205.027-4.269z" fill="url(#paint31_radial)"/><defs><linearGradient id="paint0_linear" x1="431.52" y1="469.007" x2="539.403" y2="370.52" gradientUnits="userSpaceOnUse"><stop offset=".01" stop-color="#2648F9"/><stop offset=".24" stop-color="#12AAFC"/><stop offset=".4" stop-color="#05E7FE"/><stop offset=".47" stop-color="#0FF"/><stop offset=".52" stop-color="#01F8FA"/><stop offset=".6" stop-color="#05E3EC"/><stop offset=".69" stop-color="#0AC2D5"/><stop offset=".79" stop-color="#1294B5"/><stop offset=".91" stop-color="#1D5A8C"/><stop offset="1" stop-color="#262366"/></linearGradient><linearGradient id="paint1_linear" x1="90892" y1="24432.1" x2="82670.6" y2="15697.8" gradientUnits="userSpaceOnUse"><stop offset=".01" stop-color="#2648F9"/><stop offset=".24" stop-color="#12AAFC"/><stop offset=".4" stop-color="#05E7FE"/><stop offset=".47" stop-color="#0FF"/><stop offset=".52" stop-color="#01F8FA"/><stop offset=".6" stop-color="#05E3EC"/><stop offset=".69" stop-color="#0AC2D5"/><stop offset=".79" stop-color="#1294B5"/><stop offset=".91" stop-color="#1D5A8C"/><stop offset="1" stop-color="#262366"/></linearGradient><linearGradient id="paint2_linear" x1="486.775" y1="193.043" x2="309.89" y2="489.713" gradientUnits="userSpaceOnUse"><stop stop-color="#2A77EB"/><stop offset=".04" stop-color="#296FDD"/><stop offset=".2" stop-color="#2350A6"/><stop offset=".34" stop-color="#1F377B"/><stop offset=".47" stop-color="#1C265D"/><stop offset=".59" stop-color="#1A1B4A"/><stop offset=".66" stop-color="#191743"/></linearGradient><linearGradient id="paint3_linear" x1="494.073" y1="185.701" x2="310.235" y2="494.045" gradientUnits="userSpaceOnUse"><stop stop-color="#2A77EB"/><stop offset=".08" stop-color="#2663C8"/><stop offset=".23" stop-color="#21428F"/><stop offset=".35" stop-color="#1D2B66"/><stop offset=".45" stop-color="#1A1C4C"/><stop offset=".51" stop-color="#191743"/><stop offset=".58" stop-color="#191B46"/><stop offset=".65" stop-color="#17264F"/><stop offset=".71" stop-color="#15395E"/><stop offset=".77" stop-color="#135374"/><stop offset=".83" stop-color="#0F758F"/><stop offset=".89" stop-color="#0A9FB1"/><stop offset=".95" stop-color="#05CFD8"/><stop offset="1" stop-color="#0FF"/></linearGradient><linearGradient id="paint4_linear" x1="282.9" y1="303.247" x2="265.816" y2="382.759" gradientUnits="userSpaceOnUse"><stop stop-color="#40C7FF"/><stop offset=".1" stop-color="#40C7FF"/><stop offset=".24" stop-color="#40C7FF"/><stop offset=".4" stop-color="#40C7FF"/><stop offset=".58" stop-color="#40C7FF"/><stop offset=".773" stop-color="#27AAE1"/><stop offset=".84" stop-color="#40C7FF"/><stop offset=".97" stop-color="#25A5DA"/></linearGradient><linearGradient id="paint5_linear" x1="234899" y1="66316.9" x2="237710" y2="91716" gradientUnits="userSpaceOnUse"><stop stop-color="#40C7FF"/><stop offset=".1" stop-color="#04F9FE"/><stop offset=".24" stop-color="#0EE7FD"/><stop offset=".4" stop-color="#1FCBFA"/><stop offset=".58" stop-color="#37A3F6"/><stop offset=".77" stop-color="#556FF2"/><stop offset=".97" stop-color="#7932EC"/><stop offset=".99" stop-color="#7E2AEB"/></linearGradient><linearGradient id="paint6_linear" x1="199978" y1="43003.7" x2="200674" y2="51415.1" gradientUnits="userSpaceOnUse"><stop stop-color="#7CD8FF"/><stop offset=".1" stop-color="#04F9FE"/><stop offset=".24" stop-color="#0EE7FD"/><stop offset=".4" stop-color="#1FCBFA"/><stop offset=".58" stop-color="#37A3F6"/><stop offset=".77" stop-color="#556FF2"/><stop offset=".97" stop-color="#7932EC"/><stop offset=".99" stop-color="#7E2AEB"/></linearGradient><linearGradient id="paint7_linear" x1="-30529.5" y1="4946.96" x2="-31337.6" y2="5170.57" gradientUnits="userSpaceOnUse"><stop stop-color="#40C7FF"/><stop offset=".1" stop-color="#04F9FE"/><stop offset=".24" stop-color="#0EE7FD"/><stop offset=".4" stop-color="#1FCBFA"/><stop offset=".58" stop-color="#37A3F6"/><stop offset=".77" stop-color="#556FF2"/><stop offset=".97" stop-color="#7932EC"/><stop offset=".99" stop-color="#7E2AEB"/></linearGradient><linearGradient id="paint8_linear" x1="-18081" y1="4127.3" x2="-18362.9" y2="4205.14" gradientUnits="userSpaceOnUse"><stop stop-color="#40C7FF"/><stop offset=".1" stop-color="#04F9FE"/><stop offset=".24" stop-color="#0EE7FD"/><stop offset=".4" stop-color="#1FCBFA"/><stop offset=".58" stop-color="#37A3F6"/><stop offset=".77" stop-color="#556FF2"/><stop offset=".97" stop-color="#7932EC"/><stop offset=".99" stop-color="#7E2AEB"/></linearGradient><linearGradient id="paint9_linear" x1="-10100.5" y1="1802.96" x2="-10208.9" y2="1849.79" gradientUnits="userSpaceOnUse"><stop stop-color="#40C7FF"/><stop offset=".1" stop-color="#04F9FE"/><stop offset=".24" stop-color="#0EE7FD"/><stop offset=".4" stop-color="#1FCBFA"/><stop offset=".58" stop-color="#37A3F6"/><stop offset=".77" stop-color="#556FF2"/><stop offset=".97" stop-color="#7932EC"/><stop offset=".99" stop-color="#7E2AEB"/></linearGradient><linearGradient id="paint10_linear" x1="-10399.1" y1="2063.79" x2="-10513.6" y2="2095.55" gradientUnits="userSpaceOnUse"><stop stop-color="#40C7FF"/><stop offset=".1" stop-color="#04F9FE"/><stop offset=".24" stop-color="#0EE7FD"/><stop offset=".4" stop-color="#1FCBFA"/><stop offset=".58" stop-color="#37A3F6"/><stop offset=".77" stop-color="#556FF2"/><stop offset=".97" stop-color="#7932EC"/><stop offset=".99" stop-color="#7E2AEB"/></linearGradient><linearGradient id="paint11_linear" x1="-8109.4" y1="2971.34" x2="-8174.59" y2="2982.22" gradientUnits="userSpaceOnUse"><stop stop-color="#40C7FF"/><stop offset=".1" stop-color="#04F9FE"/><stop offset=".24" stop-color="#0EE7FD"/><stop offset=".4" stop-color="#1FCBFA"/><stop offset=".58" stop-color="#37A3F6"/><stop offset=".77" stop-color="#556FF2"/><stop offset=".97" stop-color="#7932EC"/><stop offset=".99" stop-color="#7E2AEB"/></linearGradient><linearGradient id="paint12_linear" x1="11506.2" y1="6436.63" x2="11788.1" y2="6728.32" gradientUnits="userSpaceOnUse"><stop offset=".01" stop-color="#503AA3"/><stop offset=".03" stop-color="#7932EC"/><stop offset=".23" stop-color="#556FF2"/><stop offset=".42" stop-color="#37A3F6"/><stop offset=".6" stop-color="#1FCBFA"/><stop offset=".76" stop-color="#0EE7FD"/><stop offset=".9" stop-color="#04F9FE"/><stop offset="1" stop-color="#0FF"/></linearGradient><linearGradient id="paint13_linear" x1="12285.3" y1="6044.35" x2="12566.8" y2="6335.51" gradientUnits="userSpaceOnUse"><stop offset=".01" stop-color="#503AA3"/><stop offset=".03" stop-color="#7932EC"/><stop offset=".23" stop-color="#556FF2"/><stop offset=".42" stop-color="#37A3F6"/><stop offset=".6" stop-color="#1FCBFA"/><stop offset=".76" stop-color="#0EE7FD"/><stop offset=".9" stop-color="#04F9FE"/><stop offset="1" stop-color="#0FF"/></linearGradient><linearGradient id="paint14_linear" x1="13862" y1="4625.15" x2="14143.5" y2="4916.4" gradientUnits="userSpaceOnUse"><stop offset=".01" stop-color="#503AA3"/><stop offset=".03" stop-color="#7932EC"/><stop offset=".23" stop-color="#556FF2"/><stop offset=".42" stop-color="#37A3F6"/><stop offset=".6" stop-color="#1FCBFA"/><stop offset=".76" stop-color="#0EE7FD"/><stop offset=".9" stop-color="#04F9FE"/><stop offset="1" stop-color="#0FF"/></linearGradient><linearGradient id="paint15_linear" x1="13663.1" y1="5624.37" x2="13944.4" y2="5915.52" gradientUnits="userSpaceOnUse"><stop offset=".01" stop-color="#503AA3"/><stop offset=".03" stop-color="#7932EC"/><stop offset=".23" stop-color="#556FF2"/><stop offset=".42" stop-color="#37A3F6"/><stop offset=".6" stop-color="#1FCBFA"/><stop offset=".76" stop-color="#0EE7FD"/><stop offset=".9" stop-color="#04F9FE"/><stop offset="1" stop-color="#0FF"/></linearGradient><linearGradient id="paint16_linear" x1="5671" y1="1963.44" x2="5745.02" y2="2039.91" gradientUnits="userSpaceOnUse"><stop offset=".01" stop-color="#503AA3"/><stop offset=".03" stop-color="#7932EC"/><stop offset=".23" stop-color="#556FF2"/><stop offset=".42" stop-color="#37A3F6"/><stop offset=".6" stop-color="#1FCBFA"/><stop offset=".76" stop-color="#0EE7FD"/><stop offset=".9" stop-color="#04F9FE"/><stop offset="1" stop-color="#0FF"/></linearGradient><linearGradient id="paint17_linear" x1="6689.08" y1="2589.17" x2="6762.88" y2="2665.46" gradientUnits="userSpaceOnUse"><stop offset=".01" stop-color="#503AA3"/><stop offset=".03" stop-color="#7932EC"/><stop offset=".23" stop-color="#556FF2"/><stop offset=".42" stop-color="#37A3F6"/><stop offset=".6" stop-color="#1FCBFA"/><stop offset=".76" stop-color="#0EE7FD"/><stop offset=".9" stop-color="#04F9FE"/><stop offset="1" stop-color="#0FF"/></linearGradient><linearGradient id="paint18_linear" x1="6014.62" y1="3300.27" x2="6088.33" y2="3376.5" gradientUnits="userSpaceOnUse"><stop offset=".01" stop-color="#503AA3"/><stop offset=".03" stop-color="#7932EC"/><stop offset=".23" stop-color="#556FF2"/><stop offset=".42" stop-color="#37A3F6"/><stop offset=".6" stop-color="#1FCBFA"/><stop offset=".76" stop-color="#0EE7FD"/><stop offset=".9" stop-color="#04F9FE"/><stop offset="1" stop-color="#0FF"/></linearGradient><linearGradient id="paint19_linear" x1="3100.76" y1="1660" x2="3118.33" y2="1678.19" gradientUnits="userSpaceOnUse"><stop offset=".01" stop-color="#503AA3"/><stop offset=".03" stop-color="#7932EC"/><stop offset=".23" stop-color="#556FF2"/><stop offset=".42" stop-color="#37A3F6"/><stop offset=".6" stop-color="#1FCBFA"/><stop offset=".76" stop-color="#0EE7FD"/><stop offset=".9" stop-color="#04F9FE"/><stop offset="1" stop-color="#0FF"/></linearGradient><linearGradient id="paint20_linear" x1="9615.98" y1="4316.24" x2="9789.83" y2="4495.98" gradientUnits="userSpaceOnUse"><stop offset=".01" stop-color="#503AA3"/><stop offset=".03" stop-color="#7932EC"/><stop offset=".23" stop-color="#556FF2"/><stop offset=".42" stop-color="#37A3F6"/><stop offset=".6" stop-color="#1FCBFA"/><stop offset=".76" stop-color="#0EE7FD"/><stop offset=".9" stop-color="#04F9FE"/><stop offset="1" stop-color="#0FF"/></linearGradient><linearGradient id="paint21_linear" x1="9049.75" y1="4429.6" x2="9223.59" y2="4609.34" gradientUnits="userSpaceOnUse"><stop offset=".01" stop-color="#503AA3"/><stop offset=".03" stop-color="#7932EC"/><stop offset=".23" stop-color="#556FF2"/><stop offset=".42" stop-color="#37A3F6"/><stop offset=".6" stop-color="#1FCBFA"/><stop offset=".76" stop-color="#0EE7FD"/><stop offset=".9" stop-color="#04F9FE"/><stop offset="1" stop-color="#0FF"/></linearGradient><linearGradient id="paint22_linear" x1="10463.5" y1="4715.46" x2="10637.7" y2="4895.77" gradientUnits="userSpaceOnUse"><stop offset=".01" stop-color="#503AA3"/><stop offset=".03" stop-color="#7932EC"/><stop offset=".23" stop-color="#556FF2"/><stop offset=".42" stop-color="#37A3F6"/><stop offset=".6" stop-color="#1FCBFA"/><stop offset=".76" stop-color="#0EE7FD"/><stop offset=".9" stop-color="#04F9FE"/><stop offset="1" stop-color="#0FF"/></linearGradient><linearGradient id="paint23_linear" x1="2948.26" y1="1495.84" x2="2961.11" y2="1509.07" gradientUnits="userSpaceOnUse"><stop offset=".01" stop-color="#7E2AEB"/><stop offset=".03" stop-color="#7932EC"/><stop offset=".23" stop-color="#556FF2"/><stop offset=".42" stop-color="#37A3F6"/><stop offset=".6" stop-color="#1FCBFA"/><stop offset=".76" stop-color="#0EE7FD"/><stop offset=".9" stop-color="#04F9FE"/><stop offset="1" stop-color="#0FF"/></linearGradient><linearGradient id="paint24_linear" x1="3741.38" y1="1478.15" x2="3769.68" y2="1507.4" gradientUnits="userSpaceOnUse"><stop offset=".01" stop-color="#503AA3"/><stop offset=".03" stop-color="#7932EC"/><stop offset=".23" stop-color="#556FF2"/><stop offset=".42" stop-color="#37A3F6"/><stop offset=".6" stop-color="#1FCBFA"/><stop offset=".76" stop-color="#0EE7FD"/><stop offset=".9" stop-color="#04F9FE"/><stop offset="1" stop-color="#0FF"/></linearGradient><linearGradient id="paint25_linear" x1="2851.63" y1="1190.52" x2="2864.53" y2="1203.87" gradientUnits="userSpaceOnUse"><stop offset=".01" stop-color="#503AA3"/><stop offset=".03" stop-color="#7932EC"/><stop offset=".23" stop-color="#556FF2"/><stop offset=".42" stop-color="#37A3F6"/><stop offset=".6" stop-color="#1FCBFA"/><stop offset=".76" stop-color="#0EE7FD"/><stop offset=".9" stop-color="#04F9FE"/><stop offset="1" stop-color="#0FF"/></linearGradient><linearGradient id="paint26_linear" x1="6793.56" y1="3556.12" x2="6867.27" y2="3632.31" gradientUnits="userSpaceOnUse"><stop offset=".01" stop-color="#503AA3"/><stop offset=".03" stop-color="#7932EC"/><stop offset=".23" stop-color="#556FF2"/><stop offset=".42" stop-color="#37A3F6"/><stop offset=".6" stop-color="#1FCBFA"/><stop offset=".76" stop-color="#0EE7FD"/><stop offset=".9" stop-color="#04F9FE"/><stop offset="1" stop-color="#0FF"/></linearGradient><linearGradient id="paint27_linear" x1="6386.66" y1="3752.82" x2="6460.59" y2="3829.28" gradientUnits="userSpaceOnUse"><stop offset=".01" stop-color="#503AA3"/><stop offset=".03" stop-color="#7932EC"/><stop offset=".23" stop-color="#556FF2"/><stop offset=".42" stop-color="#37A3F6"/><stop offset=".6" stop-color="#1FCBFA"/><stop offset=".76" stop-color="#0EE7FD"/><stop offset=".9" stop-color="#04F9FE"/><stop offset="1" stop-color="#0FF"/></linearGradient><linearGradient id="paint28_linear" x1="7312.01" y1="2264.48" x2="7385.72" y2="2340.72" gradientUnits="userSpaceOnUse"><stop offset=".01" stop-color="#503AA3"/><stop offset=".03" stop-color="#7932EC"/><stop offset=".23" stop-color="#556FF2"/><stop offset=".42" stop-color="#37A3F6"/><stop offset=".6" stop-color="#1FCBFA"/><stop offset=".76" stop-color="#0EE7FD"/><stop offset=".9" stop-color="#04F9FE"/><stop offset="1" stop-color="#0FF"/></linearGradient><linearGradient id="paint29_linear" x1="355.718" y1="385.966" x2="463.602" y2="287.493" gradientUnits="userSpaceOnUse"><stop stop-color="#40C7FF"/><stop offset=".07" stop-color="#40C7FF"/><stop offset=".11" stop-color="#40C7FF"/><stop offset=".14" stop-color="#36ADDE"/><stop offset=".17" stop-color="#29B9D9"/><stop offset=".2" stop-color="#0FB7FD"/><stop offset=".22" stop-color="#41A8D2"/><stop offset=".24" stop-color="#1E70FA"/><stop offset=".26" stop-color="#503AA3"/><stop offset="1" stop-color="#262366"/></linearGradient><linearGradient id="paint30_linear" x1="699.047" y1="529.165" x2="761.671" y2="610.482" gradientUnits="userSpaceOnUse"><stop stop-color="#2A77EB"/><stop offset=".06" stop-color="#2685ED"/><stop offset=".26" stop-color="#19AEF3"/><stop offset=".42" stop-color="#11C8F7"/><stop offset=".51" stop-color="#0ED1F8"/><stop offset=".66" stop-color="#0DD5F9"/><stop offset=".8" stop-color="#09E0FA"/><stop offset=".93" stop-color="#04F3FD"/><stop offset="1" stop-color="#0FF"/></linearGradient><radialGradient id="paint31_radial" cx="0" cy="0" r="1" gradientUnits="userSpaceOnUse" gradientTransform="rotate(32.29 -726.002 592.527) scale(170.833 113.135)"><stop stop-color="#503AA3"/><stop offset=".28" stop-color="#C7D4FF"/><stop offset=".57" stop-color="#E6EBFF"/><stop offset=".82" stop-color="#F8FAFF"/><stop offset="1" stop-color="#fff"/></radialGradient></defs></svg>