<svg width="360" height="508" viewBox="0 0 360 508" fill="none" xmlns="http://www.w3.org/2000/svg"><path d="M97.223 103.642C38.142 92.836-47.704 0-47.704 0L-56 365.863S5.917 474.609 52.864 499.895c83.771 45.12 127.642-112.28 213.496-125.071 74.635-11.119 190.64 42.08 190.64 42.08V54.159S392.966 153.2 346.104 162.086c-52.525 9.96-77.319-74.977-129.858-84.55-46.547-8.48-72.478 34.619-119.023 26.106z" fill="url(#paint0_linear)"/><g filter="url(#filter0_d)"><circle cx="60" cy="162" r="10" fill="#40C7FF"/></g><g filter="url(#filter1_d)"><circle cx="224.5" cy="86.5" r="16.5" stroke="#F3F3F3" stroke-width="10"/></g><defs><filter id="filter0_d" x="30" y="140" width="60" height="60" filterUnits="userSpaceOnUse" color-interpolation-filters="sRGB"><feFlood flood-opacity="0" result="BackgroundImageFix"/><feColorMatrix in="SourceAlpha" values="0 0 0 0 0 0 0 0 0 0 0 0 0 0 0 0 0 0 127 0"/><feOffset dy="8"/><feGaussianBlur stdDeviation="10"/><feColorMatrix values="0 0 0 0 0.25098 0 0 0 0 0.780392 0 0 0 0 1 0 0 0 0.3 0"/><feBlend in2="BackgroundImageFix" result="effect1_dropShadow"/><feBlend in="SourceGraphic" in2="effect1_dropShadow" result="shape"/></filter><filter id="filter1_d" x="183" y="53" width="83" height="83" filterUnits="userSpaceOnUse" color-interpolation-filters="sRGB"><feFlood flood-opacity="0" result="BackgroundImageFix"/><feColorMatrix in="SourceAlpha" values="0 0 0 0 0 0 0 0 0 0 0 0 0 0 0 0 0 0 127 0"/><feOffset dy="8"/><feGaussianBlur stdDeviation="10"/><feColorMatrix values="0 0 0 0 0.952941 0 0 0 0 0.952941 0 0 0 0 0.952941 0 0 0 0.4 0"/><feBlend in2="BackgroundImageFix" result="effect1_dropShadow"/><feBlend in="SourceGraphic" in2="effect1_dropShadow" result="shape"/></filter><linearGradient id="paint0_linear" x1="200.5" y1="0" x2="200.5" y2="508" gradientUnits="userSpaceOnUse"><stop stop-color="#F7F7F7"/><stop offset="1" stop-color="#F7F7F7" stop-opacity=".4"/></linearGradient></defs></svg>