<svg width="1440" height="547" viewBox="0 0 1440 547" fill="none" xmlns="http://www.w3.org/2000/svg"><path d="M390.5 111.598C216.022 99.963-37.5 0-37.5 0L-62 393.95s182.854 117.096 321.5 144.323C506.893 586.856 636.453 417.372 890 403.6c220.41-11.973 563 45.311 563 45.311V58.316s-189.11 106.646-327.5 116.214C970.381 185.254 897.159 93.796 742 83.489c-137.461-9.132-214.042 37.276-351.5 28.109z" fill="url(#paint0_linear)"/><g filter="url(#filter0_d)"><circle cx="470.5" cy="116.5" r="16.5" stroke="#F3F3F3" stroke-width="10"/></g><g filter="url(#filter1_d)"><circle cx="195" cy="401" r="10" fill="#40C7FF"/></g><defs><filter id="filter0_d" x="429" y="83" width="83" height="83" filterUnits="userSpaceOnUse" color-interpolation-filters="sRGB"><feFlood flood-opacity="0" result="BackgroundImageFix"/><feColorMatrix in="SourceAlpha" values="0 0 0 0 0 0 0 0 0 0 0 0 0 0 0 0 0 0 127 0"/><feOffset dy="8"/><feGaussianBlur stdDeviation="10"/><feColorMatrix values="0 0 0 0 0.952941 0 0 0 0 0.952941 0 0 0 0 0.952941 0 0 0 0.4 0"/><feBlend in2="BackgroundImageFix" result="effect1_dropShadow"/><feBlend in="SourceGraphic" in2="effect1_dropShadow" result="shape"/></filter><filter id="filter1_d" x="165" y="379" width="60" height="60" filterUnits="userSpaceOnUse" color-interpolation-filters="sRGB"><feFlood flood-opacity="0" result="BackgroundImageFix"/><feColorMatrix in="SourceAlpha" values="0 0 0 0 0 0 0 0 0 0 0 0 0 0 0 0 0 0 127 0"/><feOffset dy="8"/><feGaussianBlur stdDeviation="10"/><feColorMatrix values="0 0 0 0 0.25098 0 0 0 0 0.780392 0 0 0 0 1 0 0 0 0.3 0"/><feBlend in2="BackgroundImageFix" result="effect1_dropShadow"/><feBlend in="SourceGraphic" in2="effect1_dropShadow" result="shape"/></filter><linearGradient id="paint0_linear" x1="695.5" y1="0" x2="695.5" y2="547" gradientUnits="userSpaceOnUse"><stop stop-color="#F7F7F7"/><stop offset="1" stop-color="#F7F7F7" stop-opacity=".4"/></linearGradient></defs></svg>