<svg width="251" height="173" viewBox="0 0 251 173" fill="none" xmlns="http://www.w3.org/2000/svg"><path d="M66.618 160.908h3.926v3.702h-3.926v-3.702zm19.627-45.141h19.626v3.702H86.245v-3.702zm7.85-15.701h3.925v3.702h-3.925v-3.702z" fill="#F7F7F7"/><path d="M0 51v97.909h40.97l-1.5 11.999h-6.105v11.552H92.02v-11.552h-6.105l-1.5-11.999h17.53v-3.702H3.702V54.702h117.982v90.505h-13.85v3.702h17.552V51H0zm80.685 97.909l1.963 15.701h5.67v4.149h-51.25v-4.149h17.775v-3.702H43.201l1.5-11.999h35.984z" fill="#F7F7F7"/><path d="M9.813 139.096h105.759V60.813H39.141v3.702h72.73v70.879H13.515V64.515h19.738v-3.702H9.813v78.283zm48.955 21.812h3.925v3.702h-3.925v-3.702zm15.701 0h3.925v3.702h-3.925v-3.702z" fill="#F7F7F7"/><path d="M48.954 123.618c-.605 0-1.219-.024-1.822-.07l-.28 3.692c.695.052 1.403.08 2.102.08 15.09 0 27.366-12.276 27.366-27.366S64.044 72.589 48.954 72.589c-15.089 0-27.365 12.276-27.365 27.365a27.429 27.429 0 0 0 9.095 20.378 27.23 27.23 0 0 0 9.85 5.667l1.138-3.522a23.487 23.487 0 0 1-7.005-3.655l4.388-4.389a17.519 17.519 0 0 0 9.899 3.074c9.053 0 16.527-6.891 17.455-15.702h6.136c-.947 12.186-11.166 21.813-23.591 21.813zm23.592-25.515h-6.138c-.863-8.202-7.4-14.739-15.602-15.602v-6.138c11.575.9 20.84 10.165 21.74 21.74zm-47.255 1.851c0-12.425 9.627-22.644 21.813-23.591V82.5c-8.812.927-15.702 8.4-15.702 17.453 0 4.534 1.74 8.834 4.825 12.072l-4.33 4.33a23.718 23.718 0 0 1-6.606-16.402zm23.663 13.85a13.81 13.81 0 0 1-8.882-3.24 13.783 13.783 0 0 1-4.968-10.61c0-7.637 6.213-13.85 13.851-13.85 7.637 0 13.85 6.213 13.85 13.85s-6.213 13.85-13.851 13.85zm37.291 9.814h19.626v3.702H86.245v-3.702zm5.888-15.702h13.738v3.702H92.133v-3.702zm9.813-7.85h3.925v3.702h-3.925v-3.702zm-11.664-29.44v23.329h15.478v-7.851h.111v-3.702h-.111V70.626H90.282zm11.776 3.702v8.074h-8.074v-8.074h8.074zm0 15.925h-8.074v-4.149h8.074v4.149zm-80.692-9.925h-3.702V68.664h7.739v3.702h-4.037v7.962z" fill="#F7F7F7"/><g filter="url(#filter0_d)"><circle cx="167.5" cy="30.5" r="16.5" stroke="#40C7FF" stroke-width="8"/></g><g filter="url(#filter1_d)"><circle cx="219" cy="119" r="12" fill="#503AA3"/></g><defs><filter id="filter0_d" x="127" y="0" width="81" height="81" filterUnits="userSpaceOnUse" color-interpolation-filters="sRGB"><feFlood flood-opacity="0" result="BackgroundImageFix"/><feColorMatrix in="SourceAlpha" values="0 0 0 0 0 0 0 0 0 0 0 0 0 0 0 0 0 0 127 0"/><feOffset dy="10"/><feGaussianBlur stdDeviation="10"/><feColorMatrix values="0 0 0 0 0.25098 0 0 0 0 0.780392 0 0 0 0 1 0 0 0 0.4 0"/><feBlend in2="BackgroundImageFix" result="effect1_dropShadow"/><feBlend in="SourceGraphic" in2="effect1_dropShadow" result="shape"/></filter><filter id="filter1_d" x="187" y="97" width="64" height="64" filterUnits="userSpaceOnUse" color-interpolation-filters="sRGB"><feFlood flood-opacity="0" result="BackgroundImageFix"/><feColorMatrix in="SourceAlpha" values="0 0 0 0 0 0 0 0 0 0 0 0 0 0 0 0 0 0 127 0"/><feOffset dy="10"/><feGaussianBlur stdDeviation="10"/><feColorMatrix values="0 0 0 0 0.313726 0 0 0 0 0.227451 0 0 0 0 0.639216 0 0 0 0.4 0"/><feBlend in2="BackgroundImageFix" result="effect1_dropShadow"/><feBlend in="SourceGraphic" in2="effect1_dropShadow" result="shape"/></filter></defs></svg>