<svg width="192" height="120" viewBox="0 0 192 120" fill="none" xmlns="http://www.w3.org/2000/svg"><g opacity=".1"><path d="M31.454 86.657c-3.535-5.49-7.102-11.02-11.682-15.665-1.508-1.532-3.679-3.064-5.626-2.154-1.788.798-2.155 3.192-2.043 5.17.543 9.25 6.32 17.365 12.768 24.028a103.853 103.853 0 0 0 24.65 18.808l1.596.304-19.663-30.491z" fill="#A9A9A9"/><path d="M47.996 114.874c-14.1-9.911-25.224-24.961-31.831-40.753-.231-.567-1.07-.088-.798.47a96.954 96.954 0 0 0 13.462 22.535c5.586 6.943 12.081 12.489 19.151 17.795 0 0 .056 0 0-.047h.016z" fill="#FEFEFE"/><path d="M14.306 81.725a13.98 13.98 0 0 0 6.383 3.416.297.297 0 0 0 .152-.575 14.571 14.571 0 0 1-6.176-3.192c-.264-.231-.655.152-.391.391l.032-.04zm4.804 7.47c1.747 1.827 4.3 4.07 6.806 4.716a.143.143 0 0 0 .112-.264c-1.03-.75-2.274-1.237-3.352-1.93a35.608 35.608 0 0 1-3.479-2.61.064.064 0 0 0-.078.01.064.064 0 0 0-.01.078zm7.34 9.048a13.345 13.345 0 0 0 4.94 2.61.21.21 0 0 0 .155-.018.203.203 0 0 0 .103-.201.207.207 0 0 0-.024-.076.21.21 0 0 0-.122-.096 19.555 19.555 0 0 1-4.94-2.394c-.087-.056-.19.072-.111.143v.032zm-4.883-19.239a32.33 32.33 0 0 1 .503 8.323c-.056.527.742.527.798 0 .343-2.713.247-5.977-.87-8.522-.12-.272-.487-.064-.447.183l.016.016zm4.573 6.6a19.846 19.846 0 0 1 1.835 8.698.327.327 0 0 0 .646 0 16.59 16.59 0 0 0-2.29-8.826c-.072-.128-.247 0-.191.112v.016zm6.272 7.628c1.516 3.352 2.729 6.264 2.984 9.991.04.614.998.63.958 0-.248-3.535-1.293-7.51-3.575-10.294-.176-.216-.471.064-.367.287v.016z" fill="#FEFEFE"/><path d="M44.9 114.419l-24.737-13.686c-2.905-1.596-5.857-3.192-9.081-4.045-3.224-.854-6.8-.75-9.68.917a3.191 3.191 0 0 0-1.061.886c-.798 1.205-.056 2.833.798 3.99 6.847 9.28 18.792 13.079 30.116 15.281 6.75 1.309 13.972 2.203 20.316-.447a55.254 55.254 0 0 1-6.67-2.896z" fill="#A9A9A9"/><path d="M3.373 100.502c5.913 3.99 12.497 6.615 19.152 9.049 7.365 2.705 14.762 5.338 22.104 8.115.574.216.942-.678.367-.877-7.118-2.49-14.188-5.1-21.274-7.669-6.903-2.514-13.805-5.043-20.006-9.057-.295-.192-.63.239-.335.439h-.008z" fill="#fff"/><path d="M5.64 105.505a72.87 72.87 0 0 0 7.301.934c.575 0 .718-.798.128-.91a73.787 73.787 0 0 0-7.39-.287.134.134 0 0 0-.128.115.136.136 0 0 0 .089.148zm9.703 5.323l4.788-.152c1.587.05 3.176-.065 4.74-.343.295-.072.351-.519 0-.567a22.164 22.164 0 0 0-4.54.128l-5.036.367c-.375 0-.295.575.064.567h-.016zm12.217 4.556a24.834 24.834 0 0 1 3.99-.949c1.141-.12 2.354.159 3.44-.136.302-.08.215-.463 0-.583-1.062-.59-2.818-.319-3.99-.095a9.077 9.077 0 0 0-3.671 1.46c-.168.128 0 .351.175.303h.056z" fill="#fff"/><path d="M10.092 99.424a31.324 31.324 0 0 1 2.195 3.99 17.62 17.62 0 0 0 1.436 3.192c.088.128.28 0 .271-.111-.087-1.333-.885-2.642-1.484-3.815a38.737 38.737 0 0 0-2.05-3.575c-.16-.255-.527 0-.368.287v.032zm8.124 4.286c1.372 1.652 2.665 3.647 4.285 5.051.112.096.24-.056.167-.168-1.157-1.795-2.936-3.351-4.372-4.939 0-.048-.12 0-.08.056zm8.331 3.255c.742.998 1.532 1.971 2.234 2.993a8.434 8.434 0 0 0 2.027 2.545.19.19 0 0 0 .233.002.19.19 0 0 0 .062-.225c-.327-1.053-1.213-1.804-1.9-2.641-.797-.966-1.515-1.979-2.265-2.961a.245.245 0 0 0-.16-.096.247.247 0 0 0-.244.114.244.244 0 0 0 .013.269z" fill="#fff"/><path d="M42.897 72.684c-1.237-1.149-3.264-1.596-4.612-.606-1.229.925-1.468 2.64-1.516 4.173-.479 13.829 6.966 28.416 13.422 40.657l1.404.375c-1.013-13.565-2.066-27.29-6.328-40.218a10.07 10.07 0 0 0-2.37-4.38z" fill="#A9A9A9"/><path d="M49.656 112.591c-3.63-11.674-6.12-23.588-8.61-35.542-.08-.399-.71-.319-.623.072 2.785 11.866 5.036 24.011 9.042 35.542.047.128.231.048.191-.072z" fill="#fff"/><path d="M38.564 81.27c.599.798 1.19 1.596 1.78 2.394a8.915 8.915 0 0 0 1.691 2.011.232.232 0 0 0 .344-.263 8.666 8.666 0 0 0-1.485-2.17l-1.827-2.395a.32.32 0 0 0-.503.384v.04zm1.429 6.743c1.053 1.708 2.034 3.79 3.423 5.227a.143.143 0 0 0 .18.035.144.144 0 0 0 .067-.17c-.518-1.94-2.114-3.815-3.423-5.275a.155.155 0 0 0-.256.012.155.155 0 0 0 .009.171zm2.218 8.22c.388 1.069.9 2.09 1.524 3.04.422.898.921 1.758 1.492 2.569a.144.144 0 0 0 .084.05.144.144 0 0 0 .164-.185 19.926 19.926 0 0 0-1.453-3.072 12.233 12.233 0 0 0-1.444-2.61.216.216 0 0 0-.367.208zm3.304-11.523a12.883 12.883 0 0 0-1.5 3.543c-.248.95-.655 2.394-.272 3.295a.216.216 0 0 0 .4 0c.43-.877.318-2.146.526-3.12.269-1.212.64-2.4 1.109-3.55.064-.16-.168-.304-.263-.152v-.016zm2.314 9.488a49.426 49.426 0 0 0-.479 3.742 14.98 14.98 0 0 0-.215 3.424c0 .223.39.303.47.063.25-1.188.366-2.4.344-3.614.071-1.213.111-2.394.103-3.615 0-.128-.2-.12-.223 0z" fill="#fff"/></g><g opacity=".1"><path d="M116.511 96.033c-2.522-3.91-5.059-7.844-8.323-11.172-1.077-1.085-2.625-2.178-3.99-1.524-1.269.59-1.532 2.274-1.452 3.679.391 6.591 4.5 12.376 9.089 17.116a74.468 74.468 0 0 0 17.555 13.406l1.126.216-14.005-21.721z" fill="#A9A9A9"/><path d="M128.281 116.134c-10.054-7.062-17.978-17.787-22.678-29.038-.168-.4-.798-.064-.591.335a68.89 68.89 0 0 0 9.576 16.055c4 4.802 8.602 9.07 13.693 12.696 0 0 .04 0 0 0v-.048z" fill="#F7F7F7"/><path d="M104.294 92.514a9.852 9.852 0 0 0 4.564 2.394.213.213 0 0 0 .161-.02.214.214 0 0 0 .099-.128.213.213 0 0 0-.02-.16.212.212 0 0 0-.128-.1 10.46 10.46 0 0 1-4.405-2.305c-.183-.16-.463.111-.271.279v.04zm3.423 5.314c1.245 1.3 3.064 2.905 4.844 3.36a.104.104 0 0 0 .11-.062.106.106 0 0 0 .006-.066.105.105 0 0 0-.036-.056c-.734-.542-1.596-.886-2.394-1.38a25.523 25.523 0 0 1-2.482-1.86.041.041 0 0 0-.031-.01.044.044 0 0 0-.029.014.043.043 0 0 0-.01.031.045.045 0 0 0 .014.03h.008zm5.227 6.456a9.466 9.466 0 0 0 3.519 1.859.148.148 0 0 0 .111-.012.15.15 0 0 0 .069-.087.148.148 0 0 0-.013-.111.15.15 0 0 0-.087-.069 13.735 13.735 0 0 1-3.519-1.684c-.064-.04-.136.056-.08.104zm-3.479-13.709c.374 1.955.495 3.95.359 5.937-.04.367.527.367.574 0a12.076 12.076 0 0 0-.614-6.073c-.088-.191-.351-.048-.319.128v.008zm3.272 4.7c.9 1.94 1.348 4.06 1.308 6.2a.234.234 0 0 0 .232.232.232.232 0 0 0 .231-.232 11.967 11.967 0 0 0-1.596-6.288.08.08 0 0 0-.049-.04.082.082 0 0 0-.095.119l-.031.009zm4.452 5.434a19.94 19.94 0 0 1 2.131 7.126c0 .431.71.447.678 0a13.292 13.292 0 0 0-2.545-7.333c-.128-.152-.336 0-.264.199v.008z" fill="#F7F7F7"/><path d="M126.087 115.807l-17.604-9.744a27.649 27.649 0 0 0-6.471-2.888 9.287 9.287 0 0 0-6.895.654 2.316 2.316 0 0 0-.758.63c-.59.854-.04 2.019.575 2.849 4.883 6.616 13.398 9.321 21.457 10.885 4.788.933 9.959 1.596 14.476-.319a39.25 39.25 0 0 1-4.78-2.067z" fill="#A9A9A9"/><path d="M96.506 105.888c4.213 2.817 8.897 4.716 13.637 6.456 5.251 1.923 10.517 3.798 15.744 5.777.407.152.679-.487.264-.63-5.068-1.772-10.111-3.623-15.162-5.459-4.924-1.787-9.839-3.591-14.252-6.447-.215-.136-.455.167-.24.303h.009z" fill="#FEFEFE"/><path d="M98.118 109.455c1.722.308 3.458.529 5.202.662.407 0 .511-.59.088-.646-1.739-.192-3.519-.176-5.267-.2-.111 0-.143.168 0 .184h-.023zm6.91 3.79l3.399-.103a15.85 15.85 0 0 0 3.376-.248.2.2 0 0 0 .141-.058.202.202 0 0 0 0-.282.197.197 0 0 0-.141-.059 15.66 15.66 0 0 0-3.232.088l-3.591.263c-.263 0-.207.407.048.399zm8.706 3.264a17.579 17.579 0 0 1 2.865-.67c.818.028 1.636-.004 2.45-.096.207-.056.151-.335 0-.415-.759-.423-2.011-.231-2.825-.072a6.274 6.274 0 0 0-2.61 1.046c-.119.079 0 .247.12.207z" fill="#FEFEFE"/><path d="M101.286 105.138a20.963 20.963 0 0 1 1.595 2.848c.269.794.611 1.561 1.022 2.291a.108.108 0 0 0 .059.039.115.115 0 0 0 .071-.004.112.112 0 0 0 .069-.115 7.486 7.486 0 0 0-1.061-2.721 27.875 27.875 0 0 0-1.46-2.546c-.112-.175-.375 0-.264.208h-.031zm5.793 3.064a29.988 29.988 0 0 0 3.048 3.599c.08.072.176 0 .128-.12a30.924 30.924 0 0 0-3.12-3.519s-.088 0-.056.04zm5.929 2.298c.534.711 1.101 1.397 1.596 2.131a5.944 5.944 0 0 0 1.444 1.811.138.138 0 0 0 .083.028c.029 0 .058-.01.082-.028a.136.136 0 0 0 .043-.159 6.084 6.084 0 0 0-1.349-1.883c-.559-.687-1.077-1.405-1.596-2.107-.136-.184-.407 0-.279.207h-.024z" fill="#FEFEFE"/><path d="M124.626 86.074a2.672 2.672 0 0 0-3.279-.43c-.878.653-1.046 1.882-1.085 2.976-.336 9.847 4.971 20.244 9.575 28.958l.998.272c-.718-9.664-1.469-19.447-4.501-28.656a7.269 7.269 0 0 0-1.708-3.12z" fill="#A9A9A9"/><path d="M129.478 114.506c-2.585-8.315-4.357-16.805-6.136-25.32-.056-.287-.511-.223-.447.048 1.987 8.459 3.591 17.109 6.448 25.32a.07.07 0 0 0 .036.041.075.075 0 0 0 .055.003.075.075 0 0 0 .041-.037.07.07 0 0 0 .003-.055z" fill="#FEFEFE"/><path d="M121.578 92.195l1.269 1.707a6.247 6.247 0 0 0 1.197 1.429.161.161 0 0 0 .194.003.161.161 0 0 0 .053-.187 6.264 6.264 0 0 0-1.053-1.54l-1.301-1.684a.224.224 0 0 0-.402.105c-.008.06.007.12.043.167zm1.014 4.835a21.675 21.675 0 0 0 2.441 3.719.105.105 0 0 0 .059.03.1.1 0 0 0 .066-.011.107.107 0 0 0 .045-.049.107.107 0 0 0 .006-.066 10.194 10.194 0 0 0-2.442-3.75.111.111 0 0 0-.138-.005.114.114 0 0 0-.042.06.114.114 0 0 0 .005.072zm1.58 5.841c.277.763.641 1.491 1.085 2.171.299.639.654 1.251 1.061 1.827a.106.106 0 0 0 .059.031.104.104 0 0 0 .11-.06.1.1 0 0 0 .007-.066 14.35 14.35 0 0 0-1.03-2.187 9.092 9.092 0 0 0-1.029-1.859.153.153 0 0 0-.194-.042.15.15 0 0 0-.069.185zm2.354-8.235a9.263 9.263 0 0 0-1.07 2.522 4.158 4.158 0 0 0-.191 2.346.151.151 0 0 0 .279 0 9.718 9.718 0 0 0 .375-2.226c.195-.864.462-1.71.798-2.53 0-.112-.12-.215-.191-.112zm1.651 6.767c-.159.886-.255 1.772-.343 2.666a10.44 10.44 0 0 0-.151 2.433c0 .16.279.224.327.048a11.09 11.09 0 0 0 .247-2.569c.056-.87.088-1.716.072-2.578 0-.095-.144-.087-.152 0z" fill="#FEFEFE"/></g><g opacity=".1"><path d="M137.729 118.919c.87-7.413 2.019-12.919 7.445-18.242 2.546-2.49 5.906-4.237 7.908-7.181 2.442-3.551 2.642-8.491 5.993-11.26 3.607-2.969 9.385-2.154 13.095-5.003 2.641-2.027 3.615-5.435 5.514-8.132A14.947 14.947 0 0 1 192 63.244c-5.402 1.269-9.217 7.014-8.147 12.281.678 3.367 3.056 6.448 2.769 9.871-.583 6.79-10.861 9.704-11.659 16.478-.215 1.844.351 3.687.423 5.538.239 5.762-4.963 11.22-10.94 11.475l-26.717.032z" fill="#A9A9A9"/><path d="M178.147 80.193a95.602 95.602 0 0 0-14.196 16.702c-3.91 5.857-6.671 12.073-9.839 18.29a.577.577 0 0 1-.981-.036.582.582 0 0 1-.065-.379c4.166-13.343 14.484-25.456 25.057-34.6l.024.023z" fill="#fff"/><path d="M177.684 87.072a10.806 10.806 0 0 0-4.405.359c-1.492.455-2.513 1.404-3.886 2.027-.151.072-.367-.08-.255-.24 1.684-2.394 5.897-2.824 8.578-2.394a.124.124 0 0 1 .069.046c.018.022.027.05.027.078a.124.124 0 0 1-.027.079.124.124 0 0 1-.069.045h-.032zm-3.319 7.453a13.21 13.21 0 0 0-6.193-.072c-1.875.447-3.327 1.46-4.987 2.322a.273.273 0 0 1-.358-.06.27.27 0 0 1 .023-.363c2.769-2.889 7.924-3.128 11.555-1.947a.065.065 0 0 1 .044.03.075.075 0 0 1 .008.026.06.06 0 0 1-.003.027.056.056 0 0 1-.014.024.063.063 0 0 1-.049.02.062.062 0 0 1-.026-.007zm-3.663 9.887c-5.698-.67-9.472.431-13.773 4.125-.256.216-.702-.063-.495-.375 2.793-4.077 9.695-6.048 14.364-3.99a.147.147 0 0 1 .059.158.147.147 0 0 1-.048.074.15.15 0 0 1-.083.032l-.024-.024zm-3.647-20.684c2.29 2.394 1.452 7.23-.758 9.432-.088.08-.239 0-.168-.127a8.725 8.725 0 0 0 1.748-4.716c.056-1.668-.614-2.905-1.109-4.43a.162.162 0 0 1 .004-.112.165.165 0 0 1 .185-.103.168.168 0 0 1 .098.056z" fill="#fff"/><path d="M162.778 89.17c1.173 3.129 1.045 7.294-.854 10.15-.096.145-.343.057-.287-.119 1.101-3.487 1.596-6.304.798-9.95a.161.161 0 0 1 .311-.08h.032zm-6.615 5.985a16.455 16.455 0 0 1-.16 13.654c-.168.399-.862.231-.686-.184 1.851-4.405 1.747-8.778.431-13.302-.064-.232.303-.4.415-.168z" fill="#fff"/></g><path d="M45.977 115.384h.99a.36.36 0 0 0 .36-.359v-1.237a.361.361 0 0 0-.36-.359h-.798a.293.293 0 0 1-.28-.2l-.087-.215a.287.287 0 0 1 .056-.343l.542-.543a.353.353 0 0 0 .107-.255.352.352 0 0 0-.107-.255l-.893-.894a.352.352 0 0 0-.256-.107.366.366 0 0 0-.255.107l-.55.55a.295.295 0 0 1-.327.064l-.232-.095a.3.3 0 0 1-.192-.28v-.798a.361.361 0 0 0-.359-.359H42.1a.36.36 0 0 0-.359.359v.798a.319.319 0 0 1-.207.288l-.224.087a.297.297 0 0 1-.343-.056l-.543-.542a.365.365 0 0 0-.51 0l-.894.894a.366.366 0 0 0 0 .51l.55.551a.295.295 0 0 1 .064.327c0 .08-.071.168-.095.239a.296.296 0 0 1-.28.184h-.797a.36.36 0 0 0-.36.359v1.261a.36.36 0 0 0 .36.359h.797a.294.294 0 0 1 .28.199l.088.216a.296.296 0 0 1-.056.343l-.543.543a.354.354 0 0 0-.107.255.353.353 0 0 0 .107.255l.894.894a.368.368 0 0 0 .51 0l.551-.551a.294.294 0 0 1 .327-.063c.077.038.157.07.24.095a.306.306 0 0 1 .184.28v.798a.36.36 0 0 0 .358.359h1.261a.366.366 0 0 0 .36-.367v-.798a.313.313 0 0 1 .199-.288l.215-.087a.303.303 0 0 1 .343.056l.543.542a.352.352 0 0 0 .255.107.365.365 0 0 0 .256-.107l.893-.886a.366.366 0 0 0 0-.51l-.55-.551a.311.311 0 0 1-.064-.327c.069-.145.127-.294.175-.447zm-5.003-1.309a1.776 1.776 0 0 1 1.626-1.456c.261-.019.524.021.768.116a1.784 1.784 0 0 1 1.146 1.539 1.79 1.79 0 0 1-.91 1.69 1.788 1.788 0 0 1-2.63-1.889z" fill="#DFDFDF"/><path d="M35.715 114.203h1.31a.478.478 0 0 0 .478-.479v-1.667a.482.482 0 0 0-.301-.445.472.472 0 0 0-.186-.034h-1.021a.411.411 0 0 1-.375-.272 1.775 1.775 0 0 0-.12-.279.413.413 0 0 1 .08-.455l.726-.726a.473.473 0 0 0 .104-.523.473.473 0 0 0-.104-.155l-1.173-1.181a.488.488 0 0 0-.678 0l-.734.734a.401.401 0 0 1-.44.08l-.31-.128a.394.394 0 0 1-.248-.367v-1.037a.474.474 0 0 0-.143-.342.495.495 0 0 0-.344-.137H30.57a.478.478 0 0 0-.48.479v1.029a.412.412 0 0 1-.263.375 2.36 2.36 0 0 0-.303.12c-.074.036-.157.049-.239.036a.403.403 0 0 1-.216-.108l-.726-.726a.47.47 0 0 0-.34-.141.47.47 0 0 0-.34.141l-1.171 1.181a.465.465 0 0 0-.145.339.47.47 0 0 0 .145.339l.734.726a.399.399 0 0 1 .08.439c0 .104-.088.216-.12.311a.405.405 0 0 1-.375.256h-1.03a.478.478 0 0 0-.478.479v1.667a.473.473 0 0 0 .486.479h1.022a.413.413 0 0 1 .375.271c0 .096.072.184.12.28a.399.399 0 0 1-.072.455l-.726.726a.475.475 0 0 0-.105.522c.025.059.06.112.105.156l1.18 1.181a.488.488 0 0 0 .679 0l.734-.734a.386.386 0 0 1 .431-.088l.32.128a.401.401 0 0 1 .247.367v1.037a.474.474 0 0 0 .143.342.494.494 0 0 0 .343.137h1.668a.49.49 0 0 0 .342-.143.474.474 0 0 0 .137-.344v-1.021a.39.39 0 0 1 .263-.375 2.14 2.14 0 0 0 .288-.12.405.405 0 0 1 .24-.033.403.403 0 0 1 .214.113l.727.718a.469.469 0 0 0 .678 0l1.173-1.181a.475.475 0 0 0 .107-.523.465.465 0 0 0-.107-.155l-.726-.726a.396.396 0 0 1-.088-.439c.096-.24.215-.543.215-.559zm-6.647-1.732a2.394 2.394 0 1 1 4.72.803 2.394 2.394 0 0 1-4.72-.803z" fill="#A9A9A9"/><path d="M161.796 111.681a7.421 7.421 0 1 1-7.413-7.421 7.416 7.416 0 0 1 6.851 4.582c.372.9.563 1.865.562 2.839z" fill="#D2D2D2"/><path d="M161.007 112.228a6.607 6.607 0 0 0-6.039-7.131 6.606 6.606 0 0 0-7.13 6.039 6.606 6.606 0 0 0 6.038 7.13 6.607 6.607 0 0 0 7.131-6.038z" fill="#A9A9A9"/><path d="M160.24 111.681a5.835 5.835 0 0 1-3.602 5.39 5.827 5.827 0 0 1-6.358-1.268 5.829 5.829 0 0 1 .892-8.976 5.837 5.837 0 0 1 7.363.732 5.835 5.835 0 0 1 1.705 4.122z" fill="#D2D2D2"/><path d="M155.173 114.658h-2.154a.91.91 0 0 1-.902-.902v-.463h1.285v.08h1.779a.624.624 0 0 0 .623-.622.395.395 0 0 0-.12-.285.396.396 0 0 0-.287-.114h-1.596a1.696 1.696 0 0 1-1.692-1.692v-.231a1.909 1.909 0 0 1 1.907-1.9h2.195a.896.896 0 0 1 .901.902v.519h-1.277v-.152h-1.779a.626.626 0 0 0-.622.623v.231a.406.406 0 0 0 .407.407h1.596a1.683 1.683 0 0 1 1.683 1.684 1.905 1.905 0 0 1-1.947 1.915z" fill="#A9A9A9"/><path d="M155.237 107.899h-1.285v7.557h1.285v-7.557z" fill="#A9A9A9"/><path d="M169.305 113.517a5.586 5.586 0 1 1-11.171 0 5.586 5.586 0 0 1 11.171 0z" fill="#D2D2D2"/><path d="M168.691 113.517a4.979 4.979 0 0 1-3.074 4.587 4.975 4.975 0 0 1-6.49-6.5 4.98 4.98 0 0 1 4.593-3.067 4.972 4.972 0 0 1 4.971 4.98z" fill="#A9A9A9"/><path d="M168.108 113.517a4.387 4.387 0 0 1-7.495 3.092 4.39 4.39 0 0 1 .669-6.75 4.39 4.39 0 0 1 6.826 3.658z" fill="#D2D2D2"/><path d="M164.294 115.751h-1.596a.677.677 0 0 1-.678-.678v-.343h.965v.056h1.341a.459.459 0 0 0 .463-.463.303.303 0 0 0-.303-.303h-1.197a1.277 1.277 0 0 1-1.269-1.277v-.168a1.438 1.438 0 0 1 1.428-1.436h1.596a.667.667 0 0 1 .48.199.67.67 0 0 1 .198.479v.375h-.965v-.103h-1.365a.48.48 0 0 0-.179.035.471.471 0 0 0-.251.256.476.476 0 0 0-.032.179v.168a.309.309 0 0 0 .303.311h1.197a1.27 1.27 0 0 1 1.269 1.269 1.433 1.433 0 0 1-1.405 1.444z" fill="#A9A9A9"/><path d="M164.342 110.668h-.966v5.69h.966v-5.69z" fill="#A9A9A9"/><path d="M122.759 23.68a23.525 23.525 0 1 0-36.388 19.694V54.41h25.727V43.374a23.514 23.514 0 0 0 10.661-19.694z" fill="#D2D2D2"/><path d="M86.523 44.699h-.303v-1.245a23.676 23.676 0 1 1 26.03 0v1.245h-.311v-1.413l.071-.04a23.376 23.376 0 0 0 9.637-26.237A23.379 23.379 0 0 0 99.243.296a23.373 23.373 0 0 0-12.768 42.95l.064.04-.016 1.413z" fill="#D2D2D2"/><path d="M113.766 56.342l-8.554 7.15H92.484l-7.773-7.15V45.098h29.055v11.244z" fill="#A9A9A9"/><path d="M114.532 46.127H83.874a.43.43 0 0 0-.431.431v1.293c0 .238.193.43.43.43h30.659a.431.431 0 0 0 .431-.43v-1.293a.431.431 0 0 0-.431-.43zm0 3.599H83.874a.43.43 0 0 0-.431.431v1.293c0 .238.193.43.43.43h30.659a.431.431 0 0 0 .431-.43v-1.293a.431.431 0 0 0-.431-.43zm0 3.599H83.874a.43.43 0 0 0-.431.431v1.293c0 .238.193.43.43.43h30.659a.431.431 0 0 0 .431-.43v-1.293a.431.431 0 0 0-.431-.43zm-22.415 9.831h13.23v2.53a1.699 1.699 0 0 1-1.699 1.7h-9.84a1.7 1.7 0 0 1-1.7-1.7v-2.53h.009zm24.266-39.476a17.143 17.143 0 0 1-10.586 15.843 17.148 17.148 0 1 1 10.586-15.843z" fill="#DFDFDF"/><path d="M129.287 50.077l-7.102-4.15a3.145 3.145 0 0 1-1.389-1.683l-5.53-14.507a1.995 1.995 0 0 1-.973-1.485l.087-.67c.12-.503.048-.958.439-1.229l.24-.167.199-1.237-.447-1.27-.798-.51a.908.908 0 0 1-.407-1.229l.288.216 1.46.686c.221.105.403.279.519.495l.486.87 1.812 2.497a1.604 1.604 0 0 1 .279 1.237l-.096 3.894 4.94 9.632a4.355 4.355 0 0 0 1.771 1.596l6.767 3.335-2.545 3.68z" fill="#FFCEBD"/><path d="M125.823 43.079l6.855 2.394-2.849 5.394-5.625-2.29c.774-1.101 1.619-5.498 1.619-5.498z" fill="#A9A9A9"/><path d="M133.763 110.413h-3.223v4.7h3.223v-4.7zm7.921-.504l-3.172.578.842 4.624 3.172-.578-.842-4.624z" fill="#FFCEBD"/><path d="M126.829 69.428l.75 24.45 2.737 18.075h3.934l-1.348-19.463-.168-13.821-5.905-9.24z" fill="#DFDFDF"/><path d="M138.455 66.859s2.339 3.391 0 9.248l.543 15.513 3.336 20.341h-3.879l-5.729-20.062-5.147-20.691V65.11l10.876 1.748z" fill="#D2D2D2"/><path d="M139.692 50.636s-3.192 10.908.248 18.689c0 0-10.446 4.524-14.428.726 0 0 2.466-12.201 2.394-16.191a2.391 2.391 0 0 1-2.112-2.518c.023-.404.149-.795.365-1.137a53.442 53.442 0 0 1 4.476-6.567h7.589a8.568 8.568 0 0 1 1.468 6.998z" fill="#A9A9A9"/><path d="M129.949 29.034s-.015-.015 0 0z" fill="#191C3C"/><path d="M133.38 32.394a3.371 3.371 0 0 0-.311-.638 90.768 90.768 0 0 0-1.979-3.256l-1.109.487s-.048.056-.08.064a1.741 1.741 0 0 0-1.109 1.691 2.98 2.98 0 0 0 .798 1.596c.433.438.789.945 1.053 1.5.076.277.18.544.311.798.22.297.546.497.91.559.363.048.731.048 1.093 0a.55.55 0 0 0 .232-.056.345.345 0 0 0 .119-.175 1.59 1.59 0 0 0 .08-.48l.048-.909a3.605 3.605 0 0 0-.056-1.181z" fill="#D2D2D2"/><path d="M135.463 43.638h-4.788a9.717 9.717 0 0 0-.694-5.714c-.591-1.157 5.506-1.07 5.506-1.07l-.024 6.784z" fill="#FFCEBD"/><path d="M133.652 30.646c-.798-.981-2.139-1.707-3.272-1.18v.31c-.495 1.804-2.266 3.057-2.689 4.876a3.675 3.675 0 0 0 2.338 4.166 7.028 7.028 0 0 0 2.489.207.799.799 0 0 0 .798-.39 7.314 7.314 0 0 0 1.596-3.943 5.967 5.967 0 0 0-1.26-4.046zm-1.094 17.237l2.961 9.775a6.38 6.38 0 0 1 .175 2.929l-1.699 9.918-1.133 2.49a1.423 1.423 0 0 0 .295 1.596l.471.479.207 2.346a1.44 1.44 0 0 0 1.006 1.253l.798-.846.718-.798c.185-.202.319-.446.391-.71l.263-1.006a1.747 1.747 0 0 0 0-.734l-.479-3.016 3.049-12.337a2.912 2.912 0 0 0 0-1.5l-3.192-11.036a2 2 0 0 0-2.854-1.253 2.013 2.013 0 0 0-.977 2.45z" fill="#FFCEBD"/><path d="M132.271 47.492l1.213 5.993c1.963-1.389 4.181-.08 4.971-1.078l-2.122-6.144a2.125 2.125 0 0 0-4.16.227 2.12 2.12 0 0 0 .098 1.002z" fill="#A9A9A9"/><path d="M141.496 45.96c-.192-.798-.567-1.596-.798-2.466a12.539 12.539 0 0 1-.264-2.115 31.204 31.204 0 0 1 0-6.096 9.806 9.806 0 0 0 .2-3.535 5.14 5.14 0 0 0-3.431-3.455 15.367 15.367 0 0 0-5.02-.583c-.63 0-1.843 0-2.234.614-.391.615.415 1.684.798 2.13a8.35 8.35 0 0 1 1.357 1.86c.256.641.319 1.343.183 2.02-.12.67-.479 1.228-.654 1.866a4.778 4.778 0 0 0-.056 1.931c.168.723.48 1.404.918 2.003.291.48.622.933.989 1.357a13.199 13.199 0 0 1 1.939 2.187c1.046 1.867.12 4.22.519 6.32a5.147 5.147 0 0 0 3.567 3.902 7.568 7.568 0 0 1 .423-2.163c.263-.646.702-1.205 1.021-1.827a5.839 5.839 0 0 0 .543-3.95z" fill="#D2D2D2"/><path d="M139.038 113.469l-3.806 3.391-2.602.846a.94.94 0 0 0-.622 1.101l.135.288 3.192-.04 7.797-1.109a1.13 1.13 0 0 0 .861-1.349l-.191-.854a5.85 5.85 0 0 0-1.181-2.394l-.455-.55a1.286 1.286 0 0 1-.973 1.532l-.639.143a1.282 1.282 0 0 1-1.532-.973l.016-.032z" fill="#A9A9A9"/><path d="M143.946 116.342a1.095 1.095 0 0 1-.798.678l-7.797 1.117-3.192.04v-.064a.954.954 0 0 0-.111.695l.135.287 3.192-.04 7.797-1.109a1.142 1.142 0 0 0 .861-1.349l-.087-.255z" fill="#D2D2D2"/><path d="M130.532 113.836l-5.682 3.192-1.596.167a.945.945 0 0 0-.846.942v.966h11.172a1.111 1.111 0 0 0 .795-.33 1.116 1.116 0 0 0 .33-.796v-.877a5.75 5.75 0 0 0-.622-2.618l-.328-.638a1.283 1.283 0 0 1-1.284 1.285h-.655a1.286 1.286 0 0 1-1.284-1.285v-.008z" fill="#A9A9A9"/><path d="M133.58 118.177h-11.172v.918h11.172a1.111 1.111 0 0 0 .795-.33 1.115 1.115 0 0 0 .33-.795v-.91a1.13 1.13 0 0 1-1.125 1.117z" fill="#D2D2D2"/><path d="M76.436 111.115h-2.609v3.966h2.61v-3.966z" fill="#FFCEBD"/><path d="M73.476 114.059a16.48 16.48 0 0 1-.599 3.064c-.055.184-.207.32-.207.511v1.46h6.136v-.798a1.642 1.642 0 0 0-.335-.989c-.518-.71-2.083-2.179-1.835-3.272l-3.16.024z" fill="#DFDFDF"/><path d="M72.67 118.041v1.054h6.136v-1.078l-6.136.024zm3.383-3.152h-1.348a.176.176 0 0 0-.176.176v.032c0 .097.079.175.176.175h1.348a.175.175 0 0 0 .176-.175v-.032a.176.176 0 0 0-.176-.176zm.207.854h-1.348a.176.176 0 0 0-.175.176v.032c0 .097.078.175.175.175h1.349a.175.175 0 0 0 .175-.175v-.032a.176.176 0 0 0-.175-.176z" fill="#A9A9A9"/><path d="M59.487 111.115h-2.61v3.966h2.61v-3.966z" fill="#FFCEBD"/><path d="M63.988 80.743c.726 1.788 5.139 14.021 5.139 14.021l3.99 18.665h3.886l-2.019-21.187-1.468-22.495-8.41 1.006-1.525 7.525.407 2.465z" fill="#A9A9A9"/><path d="M55.17 73.985l.248 18.8.925 20.644h3.695l1.492-16.463 3.575-19.382v-6.84l-9.225.847-.71 2.394z" fill="#A9A9A9"/><path d="M64.578 47.045h-5.546v-7.302h6.073c-1.412 1.82-.527 7.302-.527 7.302z" fill="#FFCEBD"/><path d="M55.872 73.139c.184 4.325 14.18-2.65 17.229-1.03l-3.695-25.447s-3.391-1.349-4.828-.295c-1.97 1.452-5.546 0-5.546 0l-2.49.99s-.821 22.087-.67 25.782z" fill="#DFDFDF"/><path d="M64.331 42.472S63.326 59.27 71.625 69.9c0 0 2.537 6.272 4.596 6.584 0 0 2.147-5.443-.479-9.744-1.596-2.641-4.716-8.435-4.9-11.523l-.526-8.857-5.985-3.887zm-5.299 0s2.434 11.005 2.49 16.63c.056 4.565-7.046 19.814-7.046 19.814s-4.381-4.572-2.067-9.863c1.524-3.479 3.192-6.24 3.009-8.53l.055-15.728 3.56-2.323z" fill="#D2D2D2"/><path d="M67.028 38.355a11.761 11.761 0 0 0-1.149-4.102 22.95 22.95 0 0 0-.966-1.867 4.78 4.78 0 0 1-.343-.63.799.799 0 0 0-.654-.455c-.27-.013-.54.019-.798.096a15.63 15.63 0 0 0-3.328 1.037 6.16 6.16 0 0 0-1.157.67 3.552 3.552 0 0 0-1.149 1.596 6.226 6.226 0 0 0 0 3.336c.043.276.123.544.24.798.301.46.724.826 1.22 1.061.623.36 1.253.694 1.9 1.021a7.48 7.48 0 0 0 1.165.487c.728.174 1.48.234 2.226.176a3.511 3.511 0 0 0 1.7-.335c.466-.288.81-.737.965-1.261a4.3 4.3 0 0 0 .128-1.628z" fill="#FFCEBD"/><path d="M65.305 28.125a7.238 7.238 0 0 1-3.855 1.388c-1.386.083-2.76.305-4.101.663-.798.279-2.083.798-2.474 1.596a6.84 6.84 0 0 0-.16 4.117c.225.93.665 1.793 1.285 2.522a6.879 6.879 0 0 0 2.394 1.596l.232.12c.074.056.154.104.239.143.16 0 .191-.24.191-.36a1.31 1.31 0 0 0-.215-.661 3.877 3.877 0 0 0-.391-.487 2.745 2.745 0 0 1-.407-1.596 2.083 2.083 0 0 1 .056-.798.797.797 0 0 1 .574-.543 1.03 1.03 0 0 1 .798.328c.44.382.796.852 1.046 1.38l.047-1.46a3.497 3.497 0 0 1 .128-.998c.136-.423.431-.838.327-1.26a4.093 4.093 0 0 1-.2-.575.798.798 0 0 1 .44-.702 2.99 2.99 0 0 1 .846-.224c.455-.08.877-.231 1.316-.35.42-.09.814-.275 1.15-.544.32-.313.54-.717.63-1.157a5.78 5.78 0 0 0 .112-1.332 6.73 6.73 0 0 0-.008-.806z" fill="#A9A9A9"/><path d="M75.024 50.867l3.48 7.7a2.7 2.7 0 0 1 .103 1.964l-5.115 14.746-1.676-2.521 2.266-11.539a2.713 2.713 0 0 0-.343-2.003l-2.442-3.926 3.727-4.42zm-26.365 3.575l-2.977 7.685a2.713 2.713 0 0 0 .208 2.394l9.472 12.057 1.683-2.521-6.08-9.616a2.857 2.857 0 0 1 .072-2.617l2.936-5.18a4.253 4.253 0 0 1-5.314-2.202zm8.386 19.622l1.086.192.75.694a.686.686 0 0 1 .048.942l-.224.255.335.535a.615.615 0 0 1 0 .718l-1.093 1.277a.606.606 0 0 1-.798.135l-1.133-.702a1.076 1.076 0 0 1-.487-.702l-.16-.798 1.676-2.546z" fill="#FFCEBD"/><path d="M71.816 72.756l-1.085.191-.55.663a.966.966 0 0 0 .103 1.34l-.327.367a.686.686 0 0 0 0 .878l.933 1.141a.687.687 0 0 0 .886.152l1.093-.678a1.093 1.093 0 0 0 .48-.703l.159-.798-1.692-2.553z" fill="#FFCEBD"/><path d="M56.527 114.059a3.665 3.665 0 0 1-.91 3.064.8.8 0 0 0-.2.511v1.46h5.834v-.798a1.635 1.635 0 0 0-.327-.989c-.527-.71-1.469-2.179-1.221-3.272l-3.176.024z" fill="#DFDFDF"/><path d="M55.418 118.041v1.054h5.833v-.798a1.657 1.657 0 0 0 0-.28l-5.833.024zm3.686-3.152h-1.348a.176.176 0 0 0-.176.176v.032c0 .097.079.175.176.175h1.348a.175.175 0 0 0 .176-.175v-.032a.176.176 0 0 0-.176-.176zm.208.854h-1.349a.176.176 0 0 0-.175.176v.032c0 .097.078.175.175.175h1.349a.175.175 0 0 0 .175-.175v-.032a.176.176 0 0 0-.175-.176z" fill="#A9A9A9"/><path d="M59.032 42.472l-3.862 2.522-1.723.798a4.868 4.868 0 0 0-2.394 2.617l-3.104 7.063c3.351.654 3.487 3.678 5.88 3.112l3.432-8.164 1.803-4.07-.032-3.878zm5.299 0l3.87 1.66 2.163.567a4.571 4.571 0 0 1 3.016 2.546l3.607 7.181c-2.314 0-4.716 3.096-5.083 2.498l-4.429-7.772-3.144-6.68z" fill="#D2D2D2"/></svg>