<svg width="190" height="205" viewBox="0 0 190 205" fill="none" xmlns="http://www.w3.org/2000/svg"><path d="M189.46 0H0v204.64h189.46V0z" fill="#E9F6FA"/><path d="M183.82 21.08H5.73v99.73h178.09V21.08z" fill="#fff"/><path d="M41.75 43.75h-7v8h7v-8z" fill="#40C7FF"/><path d="M155.75 41.75h-99v14h99v-14zm0 20h-99v7h99v-7zm0 14h-99v7h99v-7zm-50 13h-49v7h49v-7z" fill="#E9F6FA"/><path d="M18.71 11.26a2.5 2.5 0 1 1-5 .02 2.5 2.5 0 0 1 5-.02zm11.6 0a2.5 2.5 0 1 1-2.49-2.49 2.49 2.49 0 0 1 2.49 2.49zm11.65 0a2.5 2.5 0 1 1-5 .02 2.5 2.5 0 0 1 5-.02z" fill="#fff"/><path d="M143.61 192.2h-4.27v5.88h4.27v-5.88z" fill="#FFCEBD"/><path d="M137.96 198.55c-1.64 0-3 1.51-3.17 3.46a3.135 3.135 0 0 1 2.76-2h4.76l.4-1.5-4.75.04z" fill="#E66333"/><path d="M138.39 197.07h5.21c.286 0 .561.114.764.316.202.203.316.478.316.764v5.7h-7.37v-5.7c0-.286.114-.561.316-.764.203-.202.478-.316.764-.316z" fill="#C1EAF7"/><path d="M144.96 204.65h-9.82a.792.792 0 0 1-.79-.79.792.792 0 0 1 .79-.79h9.82c.209 0 .41.083.559.231a.794.794 0 0 1 0 1.118.794.794 0 0 1-.559.231z" fill="#40C7FF"/><path d="M138.31 192.2h-4.27v5.88h4.27v-5.88z" fill="#FFCEBD"/><path d="M149.96 119.55s5.2-.34.7 19.39c-2.76 12.08-3.23 19.32-3.31 21.18 0 .38 0 .76-.08 1.14l-3.16 33.32h-6.82l1.25-34.16v-44.81l11.42 3.94z" fill="#40C7FF"/><path opacity=".15" d="M128.78 119.55s-5.2-.34-.7 19.39c2.76 12.08 3.23 19.32 3.31 21.18 0 .38 0 .76.07 1.14l3.17 33.32h4.72s1.14-26.32 1.05-34.86c-.12-11.2-1.9-44.11-1.9-44.11l-9.72 3.94z" fill="#231F20"/><path d="M127.73 119.55s-5.2-.34-.7 19.39c2.77 12.08 3.23 19.32 3.31 21.18 0 .38 0 .76.08 1.14l3.17 33.32h5.24l.32-34.16v-44.81l-11.42 3.94z" fill="#40C7FF"/><path d="M159.07 127.86v3.27a8.089 8.089 0 0 1-2.53 5.87l-2.06 1.94a5.124 5.124 0 0 1 1.41-4.62l.62-.62.07-1.58-1.23 1.51a.391.391 0 0 1-.72-.22v-5.55h4.44z" fill="#FFCEBD"/><path d="M136.12 75.56l-5.75-1.48a8.47 8.47 0 0 1-6.11-6.19l-3-12.28h-3.85l1.9 16.63a9.18 9.18 0 0 0 2.8 5.62l11.9 11.29 2.11-13.59zm16.2 3.37l3.09 2.39a11.24 11.24 0 0 1 4.38 8.9l-.53 38.37h-5l-1.45-20.3-.51-13-5-7.21 5.02-9.15z" fill="#A6E0ED"/><path d="M152.32 95.31s-5.5 11-.66 25.28h-25.94a89.544 89.544 0 0 0 4.17-35.36l17.45 2.85 4.98 7.23z" fill="#C1EAF7"/><path d="M140.36 60.39l-.4.18a3.08 3.08 0 0 0-2.66 1.89 25.919 25.919 0 0 0-1.07 3.26c-.26.77-.63 1.49-.85 2.26a6.86 6.86 0 0 0 2.49 7.31.916.916 0 0 0 .89.22.996.996 0 0 0 .35-.38c.64-1 1.28-2.06 1.93-3.09a11.841 11.841 0 0 0 1.55-3.15c.77-2.91-.75-5.88-2.23-8.5z" fill="#40C7FF"/><path d="M155.29 82.08a5.575 5.575 0 0 0-.17-2 6.836 6.836 0 0 0-1-1.51c-1.61-2.24-2.08-5.07-2.5-7.8-.37-2.39-1.25-6.6-1.25-6.6-.7-3.37-3.57-6.4-7.42-6a5.3 5.3 0 0 0-2.18.75c-3.26 2-2.41 5.84-3.67 8.82-1 2.31-3.22 4.32-2.82 6.79.301.828.529 1.682.68 2.55 0 1.83-2 3-2.73 4.64-1.12 2.47.65 5.24.81 7.95-.057.983-.004 1.969.16 2.94.27 1 1.19 1.84 2.14 1.59.95-.25 1.4-1.39 2.33-1.67 1.2-.36 2.23.93 2.74 2.08.51 1.15 1.15 2.54 2.41 2.64 1.09.09 2-.91 2.48-1.88a5.626 5.626 0 0 1 1.93-2.61c1.57-.83 4 .18 5-1.29a4.34 4.34 0 0 0 .48-1.38 4.882 4.882 0 0 1 1.95-2.66 2.439 2.439 0 0 0 .95-2.5 15.005 15.005 0 0 1-.32-2.85z" fill="#40C7FF"/><path d="M117.25 53.91l-.64-3a1.176 1.176 0 0 1 .4-1.14l1.55-1.27h1.18c-.326-1.7-.45-3.431-.37-5.16h.37l2.05 6.88v4l-.67 1.44h-3.26l-.61-1.75z" fill="#FFCEBD"/><path d="M132.65 198.31h4v5.55h-8v-1.61a3.94 3.94 0 0 1 4-3.94z" fill="#C1EAF7"/><path d="M131.96 198.55c-1.64 0-3 1.51-3.17 3.46a3.135 3.135 0 0 1 2.76-2h4.76l.4-1.5-4.75.04z" fill="#40C7FF"/><path opacity=".3" d="M139.46 203.08h-.28v-4.91a1.083 1.083 0 0 0-1.08-1.08h-5.21a1.083 1.083 0 0 0-1.08 1.08v4.91h-2.17a.792.792 0 0 0-.79.79.79.79 0 0 0 .79.79h9.82a.79.79 0 0 0 0-1.58z" fill="#191C3C"/><path d="M132.39 197.07h5.21a1.083 1.083 0 0 1 1.08 1.08v5.7h-7.37v-5.7c0-.286.114-.561.316-.764.203-.202.478-.316.764-.316z" fill="#C1EAF7"/><path d="M138.96 204.65h-9.82a.792.792 0 0 1-.79-.79.792.792 0 0 1 .79-.79h9.82c.209 0 .41.083.559.231a.794.794 0 0 1 0 1.118.794.794 0 0 1-.559.231z" fill="#40C7FF"/></svg>