<svg width="213" height="116" viewBox="0 0 213 116" fill="none" xmlns="http://www.w3.org/2000/svg"><path d="M174.17 24.774l11.576-2.9-2.337-5.19.054-4.674-3.712-7.933-3.369 6.503-1.211 7.417-1.001 6.777zm-12.583 3.681h-.305l-8.355-11.13-.915-2.446a1.622 1.622 0 0 0-1.516-1.055h-1.391l-.602.351-6.339-.351a1.25 1.25 0 0 0 1.204 1.25l3.22.117.094 2.36c.031.86.57 1.619 1.36 1.94l2.165.883.852.773 8.097 13.31a.974.974 0 0 0 1.149.415l3.032-1.055-1.305-5.338-.445-.024zm-.099 79.976h5.205v-4.064h-5.205v4.064z" fill="#FFCEBD"/><path d="M168.715 49.511l-7.23 31.999v24.003h5.205s4.315-16.648 2.119-23.565l8.621-19.962-8.715-12.474z" fill="#40C7FF"/><path d="M168.05 105.513v6.073h-17.031v-2.118l4.878-.977 3.634-4.174h.758l1.196 1.954 5.205.164.759-.922h.601z" fill="#C1EAF7"/><path d="M159.031 104.942l-.448.469 1.035.988.448-.47-1.035-.987zm-.686.995l-.497.416.683.815.497-.416-.683-.815zm-.643 1.928l.446-.476-.68-.649-.454.469.688.656z" fill="#40C7FF"/><path d="M178.779 109.578h3.861v-4.064h-3.861v4.064z" fill="#FFCEBD"/><path opacity=".3" d="M168.136 52.067l2.47.157 6.824 9.762-3.619 8.37-1.993-9.433-4.315-6.058.633-2.798z" fill="#191C3C"/><path d="M184.917 53.036l-.328 27.583c2.931 6.018-1.954 24.894-1.954 24.894h-4.228l-.571-22.268-4.721-22.33-6.425-9.027 18.227 1.148z" fill="#40C7FF"/><path d="M172.818 111.492h6.753l3.885-1.805-.274-3.252-.539.813-.977.055-1.196-1.79h-3.251l-4.401 5.979z" fill="#C1EAF7"/><path d="M183.456 109.687v1.25l-3.58 2.009h-7.058v-1.454h6.753l3.885-1.805zm-4.682-3.033h-2.196v.649h2.196v-.649zm-.469 1.133h-2.196v.649h2.196v-.649zm-.735 1.141h-2.196v.649h2.196v-.649zm-26.555 4.017h17.031v-1.446h-17.031v1.446z" fill="#40C7FF"/><path d="M175.171 17.998l-7.613 4.408a2.37 2.37 0 0 0-.391.281l-5.674 5.127 1.141 7.308 14.358-8.535-1.821-8.59z" fill="#A6E0ED"/><path d="M188.731 25.9l-2.985 27.934h-20.517l5.448-32.609 4.494-3.228 2.516 4.385 5.722-5.698 5.322 9.215z" fill="#C1EAF7"/><path d="M180.923 8.228c.313.531.289 1.305.329 1.86.07 1.008.046 2.094.336 3.071.148.485.383.946.617 1.4.039.078.078.156.156.203a.402.402 0 0 0 .196.046c.477 0 .867-.406 1.024-.851.156-.446.14-.938.179-1.407.055-.782.501-1.556.61-2.345.039-.274.031-.563.063-.836.062-.665.312-1.306.453-1.954.289-1.298-.242-2.392-.868-3.51-.312-.562-.609-1.164-.977-1.688-.469-.672-1.149-.657-1.789-1.07-.493-.321-.829-.93-1.407-1.032-.719-.133-1.446.601-2.118.32-.704-.29-1.345-.672-2.111-.242-.258.148-.492.367-.789.406-.203.024-.407-.039-.61-.055-.398-.039-.797.079-1.18.204-.36.117-.774.273-.891.633-.07.21-.024.46-.125.664-.125.258-.438.36-.719.399-.282.031-.586.031-.836.172-.399.226-.516 1.407-.329 1.782.211.43.751.594 1.227.562.477-.023.938-.187 1.415-.218.477-.032 1.016.117 1.243.531.07.125.109.274.14.414.196.782.383 1.556.579 2.337.18.727.383 1.501.922 2.017.563.531 1.423.703 2.165.469.735-.235 1.337-.837 1.626-1.556.117-.289.195-.61.398-.852.204-.242.595-.367.837-.156a.91.91 0 0 1 .234.282z" fill="#40C7FF"/><path d="M171.474 5.03v3.745l.484.484s-1.055 1.462-.977 3.01h.977v1.852a2.866 2.866 0 0 0 2.869 2.868h.367a4.013 4.013 0 0 0 4.01-4.01v-1.61s1.547-.734 1.547-2.118c0 0 .243-2.118-1.055-2.032 0 0-1.712-.078-1.79 1.305l-1.868.165V7.64a1.4 1.4 0 0 0-1.305-1.399l-.078-2.196c-.008.008-2.204-.399-3.181.985z" fill="#FFCEBD"/><path d="M172.123 15.004c.281-.156.406.274.429.469.024.195.086.43.282.477.078.023.164 0 .242-.024.125-.031.25-.062.367-.117.094-.047.18-.11.274-.172.32-.234.586-.469.571-.875-.016-.422-.126-.798-.54-.985-.336-.149-.719-.133-1.078-.102-.282.024-.673.164-.876-.117-.101-.149-.054-.344 0-.516.032-.094.063-.195.125-.273.18-.227 1.009-.157 1.298-.172.32-.016.68-.07 1.008-.032.313.04.633.172.829.423.171.21.265.515.523.617.11.039.227.039.336.016.25-.04.516-.149.649-.368.195-.312.07-.727-.031-1.086-.227-.797-.125-1.634-.344-2.415-.117-.43-.344-1.47.015-1.837h1.9c-.196.883-.422 2.446-.078 3.283.601 1.453 1.813 3.532.398 4.9-.383.368-.875.586-1.36.797-.312.133-.625.274-.961.313-.383.047-.782-.031-1.165-.015-.492.023-.977.195-1.461.101-.321-.063-.602-.234-.876-.406-.054-.04-.117-.07-.156-.125-.055-.079-.063-.188-.102-.274a1.355 1.355 0 0 0-.109-.18 1.48 1.48 0 0 1-.242-.883c0-.242.031-.367.133-.422z" fill="#40C7FF"/><path opacity=".14" d="M168.222 89.646c.227-.32.446-.648.446-.984 0-.196-.633-1.259-.563-1.337a.642.642 0 0 1 .461-.227c-.054-.242-.312-.36-.508-.508-.195-.148-.344-.46-.164-.617.25-.188.555-.117.821-.164-.055-.665-.235-1.337-.36-1.986-.109-.578-.281-1.203-.641-1.68-.328-.43-.906-.492-1.125-1-.016-.047-.039-.094-.031-.141.023-.117.171-.149.289-.156.484-.024.985 0 1.461-.086.274-.047.946-.446 1.071-.211.102.203-.484 1.164-.578 1.399.703 2.22.688 4.666.578 6.972a56.785 56.785 0 0 1-.359 4.158c-.149 1.227-.172 2.72-.587 3.86.016-.578-.039-1.101-.281-1.633-.242-.524-.602-.993-.961-1.446a1.094 1.094 0 0 1-.164-.258.783.783 0 0 1-.04-.273 3.98 3.98 0 0 1 .04-.68c.554.305 1.102.539 1.672.79-.086-.767-.172-1.736-.688-2.353-.133-.157-.304-.321-.297-.532 0-.086.039-.172.078-.25a5.26 5.26 0 0 1 .43-.657zm5.464-18.992c.187-.43-.868-.047-.93 0-.344.242-.587.633-.735 1.023-.227.626-.266 1.298-.422 1.939a5.208 5.208 0 0 1-1.384 2.446c.297 0 .477.375.407.672-.07.29-.305.516-.493.743-.336.414-.484 1.172-.844 1.516-.179.164-.445.164-.648.243.078.117.953.914.922.984-.008.008 4.127-9.566 4.127-9.566z" fill="#191C3C"/><path opacity=".27" d="M186.293 48.722l-.11 1.032a.342.342 0 0 1-.07-.352c.078-.234.133-.461.18-.68zm.094-12.037c.625-.156-.594-.664-1.048-1.18-.062-.172 1.345-.203 1.485-.289-.086-.617 0-1.18-.086-1.798-.328-.172-1.524-.304-1.211-.406 1.547-.516.273-7.238-.172-8.238-.211-.47 1.579 2.446 1.79 2.915.547 1.212.711 2.447 1.008 3.69l-.188 1.719c-.078.016-.148.023-.226.039.078.063.141.125.203.188l-.43 4.025c-.125.015-.031.375-.148.39.117.172 0 0 .086.18l-1.009 9.45c-.687 3.986-.789-2.564-.687-3.697.195-2.298 1.399-4.995-.219-5.37-.375-.086.508-1.57.852-1.618z" fill="#BFBFBF"/><path d="M194.109 35.114l.406 4.659-4.15 19.524.492 2.525-.492 3.337-1.196 1.055-1.649.485-1.774.656h-.751l-1.586-.656 1.024-1.298.406-2.071-.656 1.094-1.235.328 1.563-3.83 2.556-2.649 1.664-16.914-.64-6.245h6.018z" fill="#FFCEBD"/><path d="M194.226 36.42h-6.003l-.132-1.306h6.018l.117 1.306z" fill="#A6E0ED"/><path d="M183.409 16.684l9.293 5.307a3.457 3.457 0 0 1 1.735 2.838l.485 10.293h-7.402l-.453-7.065-3.658-11.373z" fill="#C1EAF7"/><path d="M.922 55.522c7.902 4.893 5.44 16.327 5.338 24.23l-.352 26.144c-.008.523.805.523.813 0l.422-31.249c.102-7.354 1.36-15.397-5.807-19.836-.453-.274-.86.43-.414.71z" fill="#40C7FF"/><path d="M5.306 59.5c-.36-.758-.734-1.524-1.274-2.165-.82-.985-1.97-1.633-3.087-2.259l-.164.086c-.649 1.68-.985 3.525-.649 5.292.336 1.766 1.415 3.447 3.04 4.228 1.189.57 2.596.649 3.705 1.36.32-2.259-.594-4.486-1.57-6.542z" fill="#C1EAF7"/><path d="M13.576 45.627c-7.848 3.11-6.16 15.014-6.472 21.72-.54 11.373-.828 22.745-.75 34.133 0 .523.82.523.813 0a583.17 583.17 0 0 1 .492-28.396c.18-4.275.39-8.55.594-12.818.235-4.963.008-11.654 5.542-13.85.484-.195.273-.985-.22-.79z" fill="#C1EAF7"/><path d="M8.206 59.313c-.015-.04-.023-.079-.039-.118a3.67 3.67 0 0 0-.32.602l.36-.484zm5.824-12.998c-.048-.11-.102-.227-.212-.282-.117-.062-.266-.03-.39.008-2.557.758-4.565 2.923-5.44 5.44-.86 2.478-.68 5.237.18 7.707.976-1.54 2.954-2.306 4.345-3.588 2.462-2.259 2.837-6.214 1.516-9.285z" fill="#C1EAF7"/><path d="M9.12 115.119H4.706a4.548 4.548 0 0 1-4.55-4.549v-9.09h13.522v9.09a4.56 4.56 0 0 1-4.556 4.549z" fill="#40C7FF"/><path d="M7.26 85.293c-.125-3.15-.265-6.886 2.072-9.356 1.829-1.93 6.51-3.26 9.136-3.322.524-.015.524-.828 0-.813-2 .055-4.095.845-5.979 1.485-1.39.47-2.704.993-3.736 2.08C6.237 78 6.307 81.916 6.44 85.3c.023.516.844.516.82-.008z" fill="#C1EAF7"/><path d="M19.36 71.466c-.047-.054-.125-.054-.204-.054l-2.954.023c-.852.008-1.72.016-2.54.234-1.665.43-3.017 1.665-4.072 3.025l-.305.047c1.54.493 3.048 1.133 4.658 1.305 1.61.165 3.384-.242 4.393-1.5.64-.805.89-1.845 1.063-2.86 0-.079.008-.165-.04-.22z" fill="#C1EAF7"/><path opacity=".3" d="M4.439 101.472H.148v9.246c0 1.517.774 2.845 1.954 3.627.008-.016.016-.024.016-.039l3.126-11.787a.84.84 0 0 0-.805-1.047zm1.758-17.836c-.023 1.876-.046 3.752-.078 5.627.399-.453.766-.938 1.118-1.43.023-1.407.047-2.806.086-4.213a7.732 7.732 0 0 0-1.126.016z" fill="#231F20"/><path d="M119.868 101.45l-2.777 2.839 4.76 4.656 2.777-2.838-4.76-4.657zm-18.657 1.714l-3.796-1.165-1.954 6.366 3.796 1.165 1.954-6.366z" fill="#FFCEBD"/><path d="M75.556 86.903l-3.642 26.004 1.282.039 6.792-26.864h-4.353l-.079.821zm26.942 0l3.642 26.004-1.282.039-6.8-26.864h4.362l.078.821z" fill="#4D5068"/><path d="M105.476 86.903H72.531v-.11a3.72 3.72 0 0 1 3.72-3.72h25.497a3.72 3.72 0 0 1 3.72 3.72v.11h.008z" fill="#503AA3"/><path d="M73.9 76.906l24.666 11.357 21.158 19.047 3.963-3.931-18.211-20.314L87.14 70.028 73.9 76.906z" fill="#2FBEEA"/><path d="M72.422 71.35v4.642a7.282 7.282 0 0 0 7.285 7.284H102.7c-4.127 4.987-6.495 21.072-6.495 21.072l5.182 1.415 9.145-23.401c1.649-4.322-1.548-8.95-6.167-8.95h-16.46l.117-2.063h-15.6z" fill="#40C7FF"/><path d="M82.27 49.058l4.291.813a8.496 8.496 0 0 1 6.057 4.604l3.51 7.136-3.517 7.902-.36 3.556s-17.039 7.55-21.22 4.127l-.196-18.172 6.433-9.403 5.002-.563z" fill="#C1EAF7"/><path d="M76.307 43.798s1.36 6.112 1.07 9.668h4.987s-.516-6.065.516-7.065l-6.573-2.603z" fill="#FFCEBD"/><path d="M85.068 38.749c-.062-1.118-.523-2.165-.984-3.19l-.188.095c-1.102-1.063-2.806-1.392-4.275-.985-1.478.406-2.72 1.477-3.51 2.79-1.117 1.868-1.329 4.252-.547 6.284.79 2.032 2.564 3.65 4.666 4.229.837.234 1.813.273 2.493-.266.274-.219.477-.516.673-.805.508-.75 1.008-1.532 1.18-2.415.133-.704.047-1.423.086-2.134.07-1.204.477-2.392.406-3.603z" fill="#FFCEBD"/><path d="M82.935 34.098c-.61-.46-1.173-.992-1.845-1.344-.524-.281-1.102-.446-1.68-.578-1.462-.337-2.455-.243-3.572.844-.844.82-1.4 1.961-1.438 3.142-.008.266 0 .539-.079.797-.093.305-.312.547-.5.797-1.031 1.4-1.203 3.314-.617 4.932.258.72.68 1.532 1.36 1.915.547.313 1.954.547 2.227 1.204a6.75 6.75 0 0 1-.469-3.166c.024-.281.07-.563.227-.797.156-.235.445-.399.711-.328.196.047.336.203.5.328a1.7 1.7 0 0 0 1 .344c.141 0 .29-.016.407-.094.157-.11.227-.305.266-.492.18-.915-.125-1.954-.422-2.814-.25-.727-.297-1.673.672-1.61.868.055 1.759.586 2.681.64 1.884.102 3.822-.46 5.284-1.664a10.874 10.874 0 0 1-4.713-2.056z" fill="#4D5068"/><path d="M80.824 53.466l1.446-4.752.86.164.907 7.629-3.213-3.04z" fill="#40C7FF"/><path d="M77.206 49.058l-4.565.86a6.778 6.778 0 0 0-4.987 4.033l-5.096 12.122c-.719 1.72.54 3.62 2.4 3.62l18.227-.915.844-2.58-2.009.68-11.411-.969a1.207 1.207 0 0 1-.876-1.907L77.37 53.46c.015.007 1.383-3.76-.165-4.4z" fill="#FFCEBD"/><path d="M77.206 49.058l-4.565.86a6.778 6.778 0 0 0-4.987 4.033l-3.517 7.48c2.751-.29 5.604 2.579 7.566 1.032l5.674-9.005c.008.008 1.376-3.759-.171-4.4z" fill="#C1EAF7"/><path d="M77.166 48.761l3.658 4.705-2.579 3.384-2.345-7.792 1.266-.297z" fill="#2FBEEA"/><path d="M94.737 107.185l-1.266 3.22v2.541h15.577v-.704c0-.633-.43-1.18-1.048-1.321l-2.509-.594-5.244-3.134h-.93l-.422.93h-2.712l-.258-.93h-1.188v-.008z" fill="#C1EAF7"/><path d="M93.463 111.586v1.352h15.577v-.704c0-.234-.063-.453-.164-.648H93.463z" fill="#2FBEEA"/><path d="M120.553 108.452l1.821 2.938 2.032 1.517 9.668-12.482-.562-.422a1.364 1.364 0 0 0-1.689.046l-1.977 1.657-6.003 2.337-.555.751.493.899-1.618 2.172-.899-.351-.711.938z" fill="#C1EAF7"/><path d="M123.32 112.102l1.086.813 9.668-12.483-.562-.422a1.342 1.342 0 0 0-.626-.258l-9.566 12.35z" fill="#2FBEEA"/><path d="M61.925 71.216l-7.76 43.903h1.343l11.013-44.223-4.596.32zm121.898 0l7.761 43.903h-1.352l-11.005-44.223 4.596.32z" fill="#4D5068"/><path d="M199.986 73.694H45.824v2.087h154.162v-2.087z" fill="#ECECEC"/><path d="M45.824 73.694l8.551-4.541h148.699l-3.049 4.541h-154.2z" fill="#CFCFCF"/><path d="M199.986 75.773l3.088-4.353v-2.267l-3.049 4.541-.039 2.08z" fill="#F7F7F7"/><path d="M81.598 69.661H70.445v1.462h11.153V69.66z" fill="#4D5068"/><path d="M100.653 71.123H77.698l5.409-14.007a.872.872 0 0 1 .812-.555h21.088c.61 0 1.032.618.813 1.188l-5.167 13.373z" fill="#4D5068"/><path d="M93.416 63.846a1.431 1.431 0 1 1-1.43-1.43 1.42 1.42 0 0 1 1.43 1.43z" fill="#717386"/><path d="M109.509 68.434h-1.008a1.657 1.657 0 0 1 0-3.314h.648v.703h-.648a.958.958 0 0 0-.954.954c0 .523.43.953.954.953h1.008v.704z" fill="#503AA3"/><path d="M114.949 64.573h-6.104v1.86c0 1.32.492 2.595 1.391 3.564v.93h3.329v-.93a5.274 5.274 0 0 0 1.392-3.564v-1.86h-.008z" fill="#503AA3"/><path opacity=".29" d="M113.698 64.573v1.86c0 1.32-.492 2.595-1.391 3.564v.93h.719v-.93a5.273 5.273 0 0 0 1.391-3.564v-1.86h-.719z" fill="#fff"/><path d="M161.141 72.272h1.415l-1.415-6.035-5.213 6.035h5.213z" fill="#272834"/><path d="M159.554 72.271h-8.113l3.463-11.223h8.113l-3.463 11.223z" fill="#3A3C4E"/><path d="M158.687 72.271h-8.113l3.462-11.223h8.113l-3.462 11.223z" fill="#4D5068"/><path d="M158.077 70.802h-5.987l2.556-8.285h5.987l-2.556 8.285z" fill="#503AA3"/><path opacity=".2" d="M152.528 70.583l2.485-8.066h-.367l-2.556 8.285h5.987l.071-.219h-5.62z" fill="#fff"/><path d="M177.859 70.982a.272.272 0 0 1-.375-.102l-8.543-15.21a.275.275 0 0 1 .102-.367h.008a.274.274 0 0 1 .367.102l8.543 15.21a.275.275 0 0 1-.102.367z" fill="#191C3C"/><path d="M198.283 72.67l-21.619.008a.697.697 0 0 1-.696-.696v-.43c0-.383.313-.695.696-.695l21.619-.008c.382 0 .695.313.695.696v.43c0 .39-.313.695-.695.695z" fill="#474963"/><path d="M198.978 71.7a.844.844 0 0 0-.203-.53.84.84 0 0 1-.844.843l-21.314.008a.835.835 0 0 1-.641-.312v.133c0 .469.383.844.844.844l21.314-.008a.845.845 0 0 0 .844-.844V71.7z" fill="#191C3C"/><path d="M193.015 71.341h-1.673v.641h1.673v-.64zm1.985 0h-1.673v.641H195v-.64zm-14.069.009h-1.673v.64h1.673v-.64z" fill="#75778A"/><path d="M19.067 107.577l4.732 2.152 2.222-4.888-4.731-2.152-2.223 4.888z" fill="#FFCEBD"/><path d="M42.182 75.93l-4.908 12.067L25.62 106.67l-5.682-2.563 11.7-22.01 1.11-26.824 9.434 20.657z" fill="#A6E0ED"/><path d="M25.573 106.505l.391.172 1.86 4.502 1.024 1.579 3.228.883-.008 1.321-3.798.078-11.716-4.939-.243-1.579 1.61-3.658 1.024-.18.797.352 1.032 2.665 3.682 1.571 1.117-2.767z" fill="#A6E0ED"/><path d="M16.311 108.514l1.61-3.65 1.024-.18.797.352 1.032 2.665 3.682 1.571 1.117-2.767.391.172 1.86 4.502 1.024 1.579 3.228.883v.336h-2.798l-12.967-5.463z" fill="#40C7FF"/><path d="M37.75 111.887h4.853v-5.01H37.75v5.01z" fill="#FFCEBD"/><path d="M43.276 108.655h.407l3.282 3.142 5.206 1.977v1.345H36.946l-.806-1.251v-3.728l.806-.539h.812l1.884 1.883 3.728-.047-.094-2.782z" fill="#C1EAF7"/><path d="M37.758 109.601l1.884 1.883 3.728-.047-.094-2.782h.407l3.282 3.142 5.12 1.946H36.14v-3.603l.806-.539h.812z" fill="#40C7FF"/><path d="M67.733 36.701c-.673-1.22-1.47-2.36-2.025-3.634-1.242-2.853-1.149-6.081-1.04-9.184l-.414-1.172c-1.297-.423-2.704-.211-4.056.007-.524.086-1.055.172-1.508.446-.54.328-.9.883-1.243 1.414-.446.704-.9 1.407-1.204 2.189-.774 1.977-.039 3.892-.266 5.893-.242 2.11-1 4.283-1.485 6.355-.226.961-.453 1.93-.508 2.915-.125 2.087.54 4.205 1.79 5.87.555.742 1.313 1.336 1.97 2 .563.579 1.532.321 1.79-.445.586-1.79 1.68-3.587 2.977-3.916-.195-1.274.688-2.227 1.29-3.251.782-1.321.836-2.626.883-4.104 1.345.016 3.283 1.712 4.26 2.556.016-1.39-.54-2.727-1.212-3.939z" fill="#C1EAF7"/><path opacity=".1" d="M32.28 66.558c.054.156.109.305.163.461l4.05 16.156v6.073l.78-1.25 4.917-12.069-9.434-20.657-.477 11.286z" fill="#231F20"/><path d="M31.224 50.778l-1.625 4.11c0 4.792 2.399 7.582 3.908 12.123l4.048 16.156v25.84h5.706l2.157-26.192-.36-26.183-13.834-5.854z" fill="#C1EAF7"/><path d="M56.642 33.114l7.042 9.91c.117.149.242.297.375.422l5.284 4.44 2.477-.884a2.066 2.066 0 0 1 1.571.087l3.283 2.329-1 .234-1.345.477.203.422 1.235-.07c.493-.032.93.289 1.056.766l.054.203-2.595.336c-1.04.508-2.227-.219-3.22-.36l-1.876-.133a11.01 11.01 0 0 0-.469-.156l-6.393-4.135a7.138 7.138 0 0 1-1.798-1.446l-5.4-5.306 1.516-7.136z" fill="#FFCEBD"/><path d="M53.64 29.448l-2.094 9.348 6.886 6.307c2.079-.438 2.36-6.925 2.36-6.925l-7.152-8.73z" fill="#2FBEEA"/><path d="M61.714 28.44s-3.783 1.844-4.306 3.43l-1.673-5.979 5.276-3.603.703 6.151z" fill="#FFCEBD"/><path d="M52.788 24.524l-.03.015a45.712 45.712 0 0 0-14.335 13.217L29.309 50.77c-1.188 9.082 9.02 13.162 16.625 10.551l3.064-10.246a6.246 6.246 0 0 1 2.68-3.51l1.697-1.055c1.305-.813 2.383-1.97 3.024-3.369a16.733 16.733 0 0 0 1.274-9.629l-.273-1.657-1.673-8.62-2.939 1.289z" fill="#40C7FF"/><path opacity=".1" d="M50.639 33.02c-1.813.086-2.673 1.446-2.673 3.259l-.57 14.6c0 .149.015.305.046.454l.587 2.97.96-3.22a6.246 6.246 0 0 1 2.682-3.51l.336-.211 2.141-10.434c.329-2.118-1.367-4.002-3.509-3.908z" fill="#231F20"/><path d="M47.997 34.747v15.179c0 .156.016.32.047.476l5.088 14.108a3.029 3.029 0 0 1-.203 1.837l-1.462 3.337-.328.93a.675.675 0 0 0 .688.9l3.94-.313a.955.955 0 0 0 .867-.782l.719-3.806-5.245-16.836 2.963-14.475a3.564 3.564 0 0 0-3.682-4.096 3.529 3.529 0 0 0-3.392 3.541z" fill="#FFCEBD"/><path d="M51.397 30.831c-1.9.086-3.423.876-3.423 2.783l-.915 10.856s6.12 2.876 7.246.657l1.43-10.653c.336-2.22-2.095-3.744-4.338-3.643z" fill="#2FBEEA"/><path d="M56.837 65.315l2.368 5.58-1.602.009-1.641-3.103.875-2.486zm3.634-44.629c1.525-1.227 5.401-1.938 6.832-.11.82 1.04.547 2.533-.07 3.956-.274.64-.454 1.617-.259 2.47.04.164-1.172.07-1.258.203-.281.437-.274.383-.5.695-.485.665-1.055 1.337-1.845 1.595-1.032.336-2.188-.172-2.915-.977-.72-.805-1.087-1.868-1.376-2.916-.117-.43-.226-.867-.258-1.313-.094-1.375.579-2.743 1.65-3.603z" fill="#FFCEBD"/><path d="M62.363 22.922c-.977.656-1.188 2.008-2 2.852-.83.86-2.127 1.04-3.315 1.04-1.102 0-2.259-.133-3.142-.79-.813-.61-1.29-1.61-1.399-2.618-.117-1.008.094-2.04.422-3.001a11.513 11.513 0 0 1 2.43-4.033c.54-.579 1.165-1.118 1.916-1.392.922-.336 1.946-.226 2.923-.109 1.704.195 3.439.399 4.986 1.141.688.328 1.657.891 2.15 1.47.313.367.617.734.93 1.102.14.164.281.328.399.508.265.383.445.836.46 1.305.016.469-.148.946-.484 1.266-.258.242-.602.383-.946.477-.773.21-1.735.313-2.54.36-.953.054-1.946-.141-2.79.422z" fill="#C1EAF7"/><path d="M123.148 73.397c-.883 0-.969-.336-.188-.758l4.604-2.447c.781-.414 2.149-.758 3.032-.758h12.06c.884 0 .97.336.188.75l-4.643 2.455c-.781.414-2.149.75-3.032.75h-12.021v.008z" fill="#4D5068"/><path d="M125.172 72.99c-.703 0-.766-.265-.148-.601l3.837-2.064c.618-.328 1.704-.602 2.407-.602h9.559c.704 0 .766.266.149.594l-3.869 2.064c-.617.328-1.704.594-2.407.594h-9.528v.016z" fill="#503AA3"/><path d="M126.016 71.521a.097.097 0 0 1-.086-.055c-.023-.046-.008-.109.039-.132l1.204-.641c.047-.024.109-.008.133.039.023.047.008.11-.039.133l-1.204.64c-.016.016-.031.016-.047.016z" fill="#3A3C4E"/><path d="M198.032 79.384s.141.016.391.086c.117.04.274.094.446.156.164.078.351.172.562.274.188.125.407.258.634.414.218.164.422.36.664.555.422.422.907.915 1.29 1.516.445.579.758 1.259 1.141 1.962.297.727.648 1.493.891 2.306.219.813.523 1.649.664 2.517.164.867.383 1.743.461 2.626.094.883.25 1.766.289 2.642.047.875.094 1.735.141 2.563.047.837.008 1.634.016 2.4-.008.766-.008 1.485-.016 2.149-.141 2.658-.242 4.432-.242 4.432l-2.282-.164s.234-1.743.594-4.354c.054-.656.117-1.36.187-2.11.055-.75.156-1.54.172-2.36.024-.821.047-1.665.063-2.525.031-.86-.055-1.727-.079-2.603-.007-.875-.148-1.743-.242-2.595-.062-.86-.297-1.688-.445-2.493-.172-.805-.454-1.563-.688-2.29-.313-.704-.571-1.391-.962-1.97-.32-.602-.75-1.102-1.133-1.54-.219-.203-.398-.406-.602-.578-.211-.156-.406-.305-.586-.43l-.531-.297c-.172-.07-.313-.125-.43-.172-.227-.094-.368-.117-.368-.117z" fill="#503AA3"/><path d="M203.293 103.403s-.227-1.063-.641-2.666a75.665 75.665 0 0 0-1.751-5.83 47.808 47.808 0 0 0-1.188-3.056c-.227-.477-.43-.946-.657-1.376-.242-.422-.437-.844-.672-1.204-.25-.36-.43-.711-.672-.977-.235-.273-.422-.523-.617-.711-.423-.344-.657-.547-.657-.547s.266.18.735.492c.219.172.437.407.719.665.281.258.508.594.813.938.297.344.539.75.844 1.164.289.422.547.876.844 1.337a51.047 51.047 0 0 1 1.61 2.985c2.04 4.12 3.541 8.387 3.541 8.387l-2.251.399z" fill="#503AA3"/><path d="M204.082 104.09s.102-.781.336-1.899c.242-1.126.625-2.61 1.188-4.072.289-.727.625-1.446 1.008-2.095.219-.32.376-.64.618-.914.226-.282.422-.547.68-.758.234-.22.445-.422.703-.555.243-.141.414-.29.633-.337.383-.124.602-.203.602-.203l-.539.282c-.18.07-.321.242-.508.398-.196.149-.352.376-.516.61-.188.219-.305.508-.453.79-.165.273-.235.609-.36.922a12.608 12.608 0 0 0-.453 2.087c-.196 1.438-.211 2.891-.172 3.978.031 1.094.117 1.79.117 1.79l-2.884-.024z" fill="#503AA3"/><path d="M197.767 102.535l1.79 10.919a1.997 1.997 0 0 0 1.969 1.672h6.026c.977 0 1.814-.711 1.97-1.672l1.79-10.919h-13.545z" fill="#503AA3"/><path d="M197.767 102.535h13.545l-1.431 8.715-11.731-6.402-.383-2.313z" fill="#AB9AF7"/><path d="M212.758 102.746h-16.429a.244.244 0 0 1-.243-.242v-2.642c0-.133.11-.242.243-.242h16.429c.133 0 .242.109.242.242v2.642c-.008.132-.109.242-.242.242z" fill="#AB9AF7"/></svg>