<svg width="971" height="729" viewBox="0 0 971 729" fill="none" xmlns="http://www.w3.org/2000/svg"><path d="M210.926 374.193c-63.094 73.313-180.593 42.95-207 136-39.48 139.122 228.477-7.533 369.5 24.5 169.846 38.581 249.818 250.805 408.5 179 168.101-76.066 265.444-356.531 112-459-83.733-55.918-160.602 14.366-257.5-13-149.637-42.259-177.416-289.425-322.5-233.5-138.547 53.406-6.142 253.457-103 366z" fill="#EAEAEA" fill-opacity=".4"/><g filter="url(#filter0_d)"><path stroke="#F3F3F3" stroke-width="10" d="M280.69 619.9l28.41 16.79-16.79 28.41-28.41-16.79z"/></g><g filter="url(#filter1_d)"><path fill="#40C7FF" d="M132.978 176.406l21.616-10.428 10.428 21.616-21.616 10.428z"/></g><g filter="url(#filter2_d)"><path d="M121.003 267.72l25.638-10.523-3.706 27.464-21.932-16.941z" stroke="#40C7FF" stroke-width="6"/></g><defs><filter id="filter0_d" x="237.052" y="603.052" width="98.896" height="98.896" filterUnits="userSpaceOnUse" color-interpolation-filters="sRGB"><feFlood flood-opacity="0" result="BackgroundImageFix"/><feColorMatrix in="SourceAlpha" values="0 0 0 0 0 0 0 0 0 0 0 0 0 0 0 0 0 0 127 0"/><feOffset dy="10"/><feGaussianBlur stdDeviation="10"/><feColorMatrix values="0 0 0 0 0.952941 0 0 0 0 0.952941 0 0 0 0 0.952941 0 0 0 0.4 0"/><feBlend in2="BackgroundImageFix" result="effect1_dropShadow"/><feBlend in="SourceGraphic" in2="effect1_dropShadow" result="shape"/></filter><filter id="filter1_d" x="122.978" y="163.978" width="52.044" height="52.044" filterUnits="userSpaceOnUse" color-interpolation-filters="sRGB"><feFlood flood-opacity="0" result="BackgroundImageFix"/><feColorMatrix in="SourceAlpha" values="0 0 0 0 0 0 0 0 0 0 0 0 0 0 0 0 0 0 127 0"/><feOffset dy="8"/><feGaussianBlur stdDeviation="5"/><feColorMatrix values="0 0 0 0 0.25098 0 0 0 0 0.780392 0 0 0 0 1 0 0 0 0.25 0"/><feBlend in2="BackgroundImageFix" result="effect1_dropShadow"/><feBlend in="SourceGraphic" in2="effect1_dropShadow" result="shape"/></filter><filter id="filter2_d" x="105.057" y="234.802" width="70.329" height="69.41" filterUnits="userSpaceOnUse" color-interpolation-filters="sRGB"><feFlood flood-opacity="0" result="BackgroundImageFix"/><feColorMatrix in="SourceAlpha" values="0 0 0 0 0 0 0 0 0 0 0 0 0 0 0 0 0 0 127 0"/><feOffset dy="4"/><feGaussianBlur stdDeviation="5"/><feColorMatrix values="0 0 0 0 0.25098 0 0 0 0 0.780392 0 0 0 0 1 0 0 0 0.25 0"/><feBlend in2="BackgroundImageFix" result="effect1_dropShadow"/><feBlend in="SourceGraphic" in2="effect1_dropShadow" result="shape"/></filter></defs></svg>