<svg width="330" height="631" viewBox="0 0 330 631" fill="none" xmlns="http://www.w3.org/2000/svg"><path d="M318.406 514.103c1.039-39.505-24.632-49.843-20.906-89.103 3.351-35.314 20.609-41.378 28.002-75.751 13.89-64.58-52.278-87.04-42.502-152.749 5.796-38.96 18.505-46.218 21.891-85.604C312.055 27.584 221.953-.526 153.859 3.346 82.972 7.38 28.906 53.919 8.571 137.473-11.983 221.92 34.892 251.15 44.5 338.5 52.838 414.306-2.407 479.69 30 545c35.622 71.789 132.626 99.118 197.855 73.746 46.278-18 88.983-45.018 90.551-104.643z" fill="#191743" stroke="#fff" stroke-width="5"/></svg>