<svg width="324" height="622" xmlns="http://www.w3.org/2000/svg"><path fill="none" id="canvas_background" d="M-1-1h326v624H-1z"/><g id="svg_1"><path id="svg_2" fill="#fff" d="M8.945 113.967c-1.032 39.19 39.632 51.266 35.93 90.212-3.332 35.031-35.634 39.224-42.98 73.323-13.805 64.064 52.695 78.295 42.98 143.48-5.761 38.647-19.133 53.895-22.498 92.966-7.12 82.646 82.422 110.531 150.094 106.69 70.447-4 124.176-50.167 144.386-133.054 20.426-83.77-23.903-114.952-33.452-201.603-8.286-75.2 40.706-143.712 8.5-208.5-35.4-71.214-128.147-92.489-192.97-67.32-45.99 17.857-88.431 44.658-89.99 103.806z"/></g></svg>