<svg width="363" height="661" viewBox="0 0 363 661" fill="none" xmlns="http://www.w3.org/2000/svg"><g filter="url(#filter0_d)"><path d="M28.945 143.986c-1.032 39.189 39.632 51.266 35.93 90.212-3.331 35.031-35.634 39.224-42.98 73.323C8.09 371.585 74.59 385.816 64.874 451c-5.761 38.648-19.133 53.896-22.498 92.967-7.12 82.646 82.422 110.531 150.094 106.689 70.447-4 124.176-50.166 144.386-133.053 20.426-83.771-23.903-114.952-33.452-201.603-8.286-75.2 40.706-143.712 8.5-208.5-35.4-71.214-128.147-92.489-192.97-67.32-45.99 17.856-88.431 44.658-89.99 103.806z" fill="#fff"/></g><defs><filter id="filter0_d" x="0" y=".019" width="362.175" height="660.981" filterUnits="userSpaceOnUse" color-interpolation-filters="sRGB"><feFlood flood-opacity="0" result="BackgroundImageFix"/><feColorMatrix in="SourceAlpha" values="0 0 0 0 0 0 0 0 0 0 0 0 0 0 0 0 0 0 127 0"/><feOffset dy="-10"/><feGaussianBlur stdDeviation="10"/><feColorMatrix values="0 0 0 0 0.759825 0 0 0 0 0.759825 0 0 0 0 0.759825 0 0 0 0.1 0"/><feBlend in2="BackgroundImageFix" result="effect1_dropShadow"/><feBlend in="SourceGraphic" in2="effect1_dropShadow" result="shape"/></filter></defs></svg>